<svg width="24" height="24" viewBox="0 0 24 24" fill="none" xmlns="http://www.w3.org/2000/svg">
<path d="M12 24C18.6274 24 24 18.6274 24 12C24 5.37258 18.6274 0 12 0C5.37258 0 0 5.37258 0 12C0 18.6274 5.37258 24 12 24Z" fill="#B22234"/>
<path d="M0.0463867 11.0768H23.9536C23.906 10.4548 23.81 9.83747 23.6664 9.23041H0.333587C0.190007 9.83747 0.0939824 10.4548 0.0463867 11.0768Z" fill="#F9F7F7"/>
<path d="M5.62484 22.1536H18.3752C19.2046 21.6331 19.9673 21.0134 20.6464 20.308H3.35364C4.03274 21.0134 4.79545 21.6331 5.62484 22.1536Z" fill="#F9F7F7"/>
<path d="M0.333587 14.7696H23.6664C23.81 14.1626 23.906 13.5452 23.9536 12.9232H0.0463867C0.0939824 13.5452 0.190007 14.1626 0.333587 14.7696Z" fill="#F9F7F7"/>
<path d="M1.89916 18.4616H22.1008C22.4799 17.876 22.8068 17.2581 23.0776 16.6152H0.922363C1.19316 17.2581 1.52002 17.876 1.89916 18.4616Z" fill="#F9F7F7"/>
<path d="M0.922363 7.38479H23.0776C22.8068 6.74186 22.4799 6.12401 22.1008 5.53839H1.89916C1.52002 6.12401 1.19316 6.74186 0.922363 7.38479Z" fill="#F9F7F7"/>
<path d="M3.35364 3.69197H20.6464C19.9672 2.98639 19.2042 2.36659 18.3744 1.84637H5.62564C4.79585 2.36659 4.03285 2.98639 3.35364 3.69197Z" fill="#F9F7F7"/>
<path d="M0 12C0 12.312 0.0232 12.6184 0.0464 12.9248H12V0C8.8174 0 5.76516 1.26428 3.51472 3.51472C1.26428 5.76516 0 8.8174 0 12Z" fill="#3C3B6E"/>
<path d="M0.112017 10.444V10.4208L0.102417 10.4272L0.112017 10.444Z" fill="#F9F7F7"/>
<path d="M8.96009 7.01678L8.79369 7.52638H8.25769L8.69129 7.84239L8.52569 8.35198L8.96009 8.03678L9.39369 8.35198L9.22809 7.84239L9.66169 7.52638H9.12569L8.96009 7.01678Z" fill="#F9F7F7"/>
<path d="M8.96009 4.43121L8.79369 4.94161H8.25769L8.69129 5.25681L8.52569 5.76721L8.96009 5.45201L9.39369 5.76721L9.22809 5.25681L9.66169 4.94161H9.12569L8.96009 4.43121Z" fill="#F9F7F7"/>
<path d="M9.12569 10.112L8.96009 9.60156L8.79369 10.112H8.25769L8.69129 10.4272L8.52569 10.9376L8.96009 10.6216L9.39369 10.9376L9.22809 10.4272L9.66169 10.112H9.12569Z" fill="#F9F7F7"/>
<path d="M8.96009 1.84637L8.79369 2.35677H8.25769L8.69129 2.67197L8.52569 3.18237L8.96009 2.86717L9.39369 3.18237L9.22809 2.67197L9.66169 2.35677H9.12569L8.96009 1.84637Z" fill="#F9F7F7"/>
<path d="M10.6456 11.404L10.48 10.8936L10.3144 11.404H9.77759L10.2112 11.7192L10.0456 12.2296L10.48 11.9144L10.9136 12.2296L10.748 11.7192L11.1824 11.404H10.6456Z" fill="#F9F7F7"/>
<path d="M10.48 8.30878L10.3144 8.81918H9.77759L10.2112 9.13438L10.0456 9.64478L10.48 9.32958L10.9136 9.64478L10.748 9.13438L11.1824 8.81918H10.6456L10.48 8.30878Z" fill="#F9F7F7"/>
<path d="M10.48 3.13916L10.3144 3.64956H9.77759L10.2112 3.96476L10.0456 4.47516L10.48 4.15916L10.9136 4.47516L10.748 3.96476L11.1824 3.64956H10.6456L10.48 3.13916Z" fill="#F9F7F7"/>
<path d="M10.48 5.724L10.3144 6.2344H9.77759L10.2112 6.5496L10.0456 7.06L10.48 6.7448L10.9136 7.06L10.748 6.5496L11.1824 6.2344H10.6456L10.48 5.724Z" fill="#F9F7F7"/>
<path d="M10.48 0.553589L10.3144 1.06399H9.77759L10.2112 1.37999L10.0456 1.88959L10.48 1.57439L10.9136 1.88959L10.748 1.37999L11.1824 1.06399H10.6456L10.48 0.553589Z" fill="#F9F7F7"/>
<path d="M7.60482 11.404L7.43922 10.8936L7.27362 11.404H6.73682L7.17122 11.7192L7.00562 12.2296L7.43922 11.9144L7.87362 12.2296L7.70802 11.7192L8.14162 11.404H7.60482Z" fill="#F9F7F7"/>
<path d="M7.43922 8.30878L7.27362 8.81918H6.73682L7.17122 9.13438L7.00562 9.64478L7.43922 9.32958L7.87362 9.64478L7.70802 9.13438L8.14162 8.81918H7.60482L7.43922 8.30878Z" fill="#F9F7F7"/>
<path d="M7.43922 3.13916L7.27362 3.64956H6.73682L7.17122 3.96476L7.00562 4.47516L7.43922 4.15916L7.87362 4.47516L7.70802 3.96476L8.14162 3.64956H7.60482L7.43922 3.13916Z" fill="#F9F7F7"/>
<path d="M7.43922 5.724L7.27362 6.2344H6.73682L7.17122 6.5496L7.00562 7.06L7.43922 6.7448L7.87362 7.06L7.70802 6.5496L8.14162 6.2344H7.60482L7.43922 5.724Z" fill="#F9F7F7"/>
<path d="M7.0056 1.8896L7.44 1.5744L7.8744 1.8896L7.7088 1.38L8.1424 1.064H7.6048L7.5408 0.865601C7.4608 0.896001 7.3856 0.920001 7.3096 0.952001L7.2736 1.064H7.0776C7.008 1.0952 6.9416 1.1304 6.8728 1.1632L7.1712 1.38L7.0056 1.8896Z" fill="#F9F7F7"/>
<path d="M5.9192 7.01678L5.7536 7.52638H5.2168L5.6512 7.84239L5.4848 8.35198L5.9192 8.03678L6.3536 8.35198L6.1872 7.84239L6.6216 7.52638H6.0848L5.9192 7.01678Z" fill="#F9F7F7"/>
<path d="M5.9192 4.43121L5.7536 4.94161H5.2168L5.6512 5.25681L5.4848 5.76721L5.9192 5.45201L6.3536 5.76721L6.1872 5.25681L6.6216 4.94161H6.0848L5.9192 4.43121Z" fill="#F9F7F7"/>
<path d="M6.0848 10.112L5.9192 9.60156L5.7536 10.112H5.2168L5.6512 10.4272L5.4848 10.9376L5.9192 10.6216L6.3536 10.9376L6.1872 10.4272L6.6216 10.112H6.0848Z" fill="#F9F7F7"/>
<path d="M5.9192 1.84637L5.7536 2.35677H5.2168L5.6512 2.67197L5.4848 3.18237L5.9192 2.86717L6.3536 3.18237L6.1872 2.67197L6.6216 2.35677H6.0848L5.9192 1.84637Z" fill="#F9F7F7"/>
<path d="M4.5649 11.404L4.3993 10.8936L4.2337 11.404H3.6969L4.1305 11.7192L3.9649 12.2296L4.3993 11.9144L4.8329 12.2296L4.6673 11.7192L5.1017 11.404H4.5649Z" fill="#F9F7F7"/>
<path d="M4.3993 8.30878L4.2337 8.81918H3.6969L4.1305 9.13438L3.9649 9.64478L4.3993 9.32958L4.8329 9.64478L4.6673 9.13438L5.1017 8.81918H4.5649L4.3993 8.30878Z" fill="#F9F7F7"/>
<path d="M4.3993 3.13916L4.2337 3.64956H3.6969L4.1305 3.96476L3.9649 4.47516L4.3993 4.15916L4.8329 4.47516L4.6673 3.96476L5.1017 3.64956H4.5649L4.3993 3.13916Z" fill="#F9F7F7"/>
<path d="M4.3993 5.724L4.2337 6.2344H3.6969L4.1305 6.5496L3.9649 7.06L4.3993 6.7448L4.8329 7.06L4.6673 6.5496L5.1017 6.2344H4.5649L4.3993 5.724Z" fill="#F9F7F7"/>
<path d="M2.87928 7.01678L2.71288 7.52638H2.17688L2.61048 7.84239L2.44488 8.35198L2.87928 8.03678L3.31288 8.35198L3.14728 7.84239L3.58088 7.52638H3.04488L2.87928 7.01678Z" fill="#F9F7F7"/>
<path d="M2.44488 5.76721L2.88008 5.45201L3.31368 5.76721L3.14808 5.25681L3.58168 4.94161H3.04568L2.88008 4.43121L2.71368 4.94161H2.31368C2.29848 4.96321 2.28168 4.98321 2.26648 5.00481L2.61368 5.25681L2.44488 5.76721Z" fill="#F9F7F7"/>
<path d="M3.04488 10.112L2.87928 9.60156L2.71288 10.112H2.17688L2.61048 10.4272L2.44488 10.9376L2.87928 10.6216L3.31288 10.9376L3.14728 10.4272L3.58088 10.112H3.04488Z" fill="#F9F7F7"/>
<path d="M1.52401 11.404L1.35841 10.8936L1.19281 11.404H0.656006L1.09041 11.7192L0.924806 12.2296L1.35841 11.9144L1.79281 12.2296L1.62721 11.7192L2.06081 11.404H1.52401Z" fill="#F9F7F7"/>
<path d="M1.35841 8.30878L1.19281 8.81918H0.656006L1.09041 9.13438L0.924806 9.64478L1.35841 9.32958L1.79281 9.64478L1.62721 9.13438L2.06081 8.81918H1.52401L1.35841 8.30878Z" fill="#F9F7F7"/>
<path d="M1.79283 7.05997L1.62723 6.54957L2.06083 6.23437H1.52403L1.50723 6.18237C1.37923 6.41357 1.26723 6.65357 1.15283 6.89437L1.36003 6.74477L1.79283 7.05997Z" fill="#F9F7F7"/>
<path d="M0.112046 10.444C0.0976455 10.5584 0.0728455 10.6688 0.0616455 10.784L0.272846 10.9376L0.112046 10.444Z" fill="#F9F7F7"/>
<path d="M0.540793 10.112H0.159993C0.143193 10.2144 0.126393 10.3168 0.112793 10.4208L0.540793 10.112Z" fill="#F9F7F7"/>
</svg>
