<svg width="28" height="29" viewBox="0 0 28 29" fill="none" xmlns="http://www.w3.org/2000/svg">
<path d="M13.0004 1.50421H14.9999L17.9992 5.00336H23.4979V10.502L27.4969 14.5011L23.4979 18.5001V23.4989H17.9992L14.0002 27.4979L10.0011 23.4989H4.50245V18.5001L0.503418 14.5011L4.50245 10.502V5.00336H10.0011L13.0004 1.50421Z" fill="#E2FFF8"/>
<path d="M27.8275 14.0867L23.9143 10.1793V5.16971C23.9143 5.01504 23.8528 4.8667 23.7435 4.75733C23.6341 4.64796 23.4857 4.58652 23.3311 4.58652H18.3214L14.4141 0.673301C14.3598 0.618639 14.2953 0.575253 14.2243 0.545645C14.1532 0.516037 14.077 0.500793 14 0.500793C13.923 0.500793 13.8468 0.516037 13.7757 0.545645C13.7046 0.575253 13.6401 0.618639 13.5859 0.673301L9.67854 4.58652H4.66892C4.51425 4.58652 4.36591 4.64796 4.25654 4.75733C4.14717 4.8667 4.08573 5.01504 4.08573 5.16971V10.1793L0.172507 14.0867C0.117846 14.1409 0.0744594 14.2054 0.0448515 14.2765C0.0152436 14.3476 0 14.4238 0 14.5008C0 14.5778 0.0152436 14.654 0.0448515 14.7251C0.0744594 14.7961 0.117846 14.8606 0.172507 14.9149L4.08573 18.8222V23.8319C4.08573 23.9865 4.14717 24.1349 4.25654 24.2442C4.36591 24.3536 4.51425 24.4151 4.66892 24.4151H9.67854C14 28.7132 13.6617 28.4974 14 28.4974C14.3382 28.4974 14.1108 28.6315 18.3214 24.4151H23.3311C23.4857 24.4151 23.6341 24.3536 23.7435 24.2442C23.8528 24.1349 23.9143 23.9865 23.9143 23.8319V18.8222L27.8275 14.9149C27.8821 14.8606 27.9255 14.7961 27.9551 14.7251C27.9847 14.654 28 14.5778 28 14.5008C28 14.4238 27.9847 14.3476 27.9551 14.2765C27.9255 14.2054 27.8821 14.1409 27.8275 14.0867ZM22.917 18.1691C22.6779 18.414 22.7479 18.2624 22.7479 23.2487C17.7558 23.2487 17.9132 23.1787 17.6683 23.4178L14 27.0919L10.3317 23.4178C10.0868 23.1787 10.2384 23.2487 5.25211 23.2487C5.25211 18.2565 5.32209 18.414 5.08299 18.1691L1.40887 14.5008L5.08299 10.8325C5.32209 10.5876 5.25211 10.7392 5.25211 5.7529C10.2442 5.7529 10.0868 5.82289 10.3317 5.58378L14 1.90967L17.6683 5.58378C17.9132 5.82289 17.7616 5.7529 22.7479 5.7529C22.7479 10.745 22.6779 10.5876 22.917 10.8325L26.5911 14.5008L22.917 18.1691Z" fill="#19C29A"/>
<path d="M21.5813 15.1307C20.9048 15.1307 20.2399 14.4892 19.1669 14.1742C17.6039 13.7135 16.1867 15.084 16.9915 15.6672C17.0528 15.7132 17.1225 15.7466 17.1967 15.7656C17.2709 15.7846 17.3481 15.7888 17.4239 15.778C17.4998 15.7672 17.5727 15.7415 17.6386 15.7025C17.7045 15.6635 17.7621 15.6118 17.808 15.5506C18.3912 14.7633 19.5576 15.6147 20.3741 15.988C19.3127 16.7231 18.0353 17.0804 16.7466 17.0027C15.621 16.9561 15.9943 12.4422 16.2392 10.9317C16.2519 10.8551 16.2493 10.7768 16.2317 10.7012C16.214 10.6256 16.1817 10.5542 16.1365 10.4911C16.0912 10.428 16.034 10.3745 15.9681 10.3335C15.9022 10.2925 15.8289 10.2649 15.7523 10.2523C15.6757 10.2396 15.5974 10.2422 15.5218 10.2598C15.4462 10.2775 15.3748 10.3098 15.3117 10.355C15.2486 10.4003 15.195 10.4575 15.1541 10.5234C15.1131 10.5893 15.0855 10.6626 15.0728 10.7392C14.8825 11.9643 14.7909 13.2027 14.7987 14.4425C14.7579 15.9705 12.6876 17.1718 11.0838 17.4168C10.9291 17.4292 10.7857 17.5025 10.6851 17.6206C10.5845 17.7387 10.5349 17.892 10.5473 18.0466C10.5596 18.2013 10.633 18.3447 10.7511 18.4453C10.8692 18.546 11.0225 18.5955 11.1771 18.5832C12.6654 18.3855 14.0386 17.6763 15.0612 16.577C15.312 17.4459 15.7843 18.1458 16.6766 18.1866C17.6655 18.248 18.6558 18.0918 19.5777 17.7291C20.4997 17.3664 21.3309 16.8059 22.0128 16.0871C22.0829 16.003 22.128 15.9009 22.1428 15.7925C22.1576 15.684 22.1415 15.5736 22.0965 15.4738C22.0515 15.374 21.9793 15.2889 21.8882 15.2282C21.797 15.1675 21.6907 15.1337 21.5813 15.1307Z" fill="#08A47F"/>
<path d="M11.749 11.9234C12.108 12.1307 12.4207 12.4096 12.6675 12.7428C12.9144 13.0759 13.0902 13.4562 13.184 13.8601C13.2182 13.9873 13.2944 14.0993 13.4003 14.1777C13.5063 14.256 13.6356 14.2962 13.7673 14.2917C15.2023 14.2917 13.674 11.5209 12.2565 10.8676C12.1165 10.8003 11.9555 10.7914 11.8089 10.8428C11.6623 10.8942 11.5421 11.0017 11.4748 11.1417C11.4075 11.2818 11.3986 11.4428 11.45 11.5894C11.5014 11.7359 11.609 11.8561 11.749 11.9234Z" fill="#08A47F"/>
<path d="M10.186 9.75954C10.1658 9.60487 10.0851 9.46452 9.96153 9.36937C9.83794 9.27422 9.68162 9.23206 9.52695 9.25216C9.37227 9.27227 9.23192 9.353 9.13677 9.47659C9.04162 9.60017 8.99946 9.7565 9.01957 9.91117C9.25285 11.6607 9.69607 15.1599 9.73106 15.7431C9.64334 16.1742 9.40881 16.5616 9.06743 16.8392C8.72606 17.1167 8.29899 17.2673 7.85902 17.2652C7.3808 17.2944 7.235 17.1253 7.18834 17.0669C7.08592 16.8873 7.02073 16.6888 6.99668 16.4834C6.97264 16.278 6.99022 16.0699 7.04838 15.8714C7.0771 15.7226 7.04679 15.5685 6.96387 15.4417C6.88095 15.3149 6.75193 15.2253 6.60412 15.192C6.45632 15.1586 6.30134 15.1841 6.172 15.263C6.04265 15.3419 5.9491 15.4681 5.91115 15.6148C5.5729 17.0903 6.20275 18.4316 7.75404 18.4316C9.60859 18.4316 10.9616 16.9153 10.8974 15.6789C10.8566 14.8683 10.2093 9.96949 10.186 9.75954Z" fill="#08A47F"/>
</svg>
