<svg width="16" height="14" viewBox="0 0 16 14" fill="none" xmlns="http://www.w3.org/2000/svg">
<path d="M4.54545 9.90902C3.64164 9.90902 2.90909 10.6416 2.90909 11.5454C2.90909 12.4492 3.64164 13.1818 4.54545 13.1818C5.44927 13.1818 6.18182 12.4492 6.18182 11.5454C6.18182 10.6416 5.44927 9.90902 4.54545 9.90902ZM4.54545 12.2727C4.14382 12.2727 3.81818 11.947 3.81818 11.5454C3.81818 11.1438 4.14382 10.8181 4.54545 10.8181C4.94709 10.8181 5.27273 11.1438 5.27273 11.5454C5.27273 11.947 4.94709 12.2727 4.54545 12.2727ZM15.5367 7.07048L13.25 4.51484C12.9051 4.12939 12.4124 3.90902 11.8951 3.90902H9.09091V1.90902C9.09091 1.30739 8.60164 0.818115 8 0.818115H1.09091C0.489273 0.818115 0 1.30739 0 1.90902V10.4545C0 11.0561 0.489273 11.5454 1.09091 11.5454H2.36364C2.36364 10.3405 3.34055 9.36357 4.54545 9.36357C5.75036 9.36357 6.72727 10.3405 6.72727 11.5454H7.45455H8.72727H10C10 10.3405 10.9769 9.36357 12.1818 9.36357C13.3867 9.36357 14.3636 10.3405 14.3636 11.5454H14.9091C15.5116 11.5454 16 11.057 16 10.4545V8.28302C16 7.83521 15.8356 7.40466 15.5367 7.07048ZM13.9845 7.98211C13.9556 8.0483 13.8902 8.09084 13.8182 8.09084H10.1818C10.0813 8.09084 10 8.00957 10 7.90902V5.72721C10 5.62666 10.0813 5.54539 10.1818 5.54539H11.6582C11.8107 5.54539 11.9573 5.60975 12.0604 5.7223L13.9522 7.7863C14.0009 7.83921 14.0136 7.9163 13.9845 7.98211ZM12.1818 9.90902C11.278 9.90902 10.5455 10.6416 10.5455 11.5454C10.5455 12.4492 11.278 13.1818 12.1818 13.1818C13.0856 13.1818 13.8182 12.4492 13.8182 11.5454C13.8182 10.6416 13.0856 9.90902 12.1818 9.90902ZM12.1818 12.2727C11.7802 12.2727 11.4545 11.947 11.4545 11.5454C11.4545 11.1438 11.7802 10.8181 12.1818 10.8181C12.5835 10.8181 12.9091 11.1438 12.9091 11.5454C12.9091 11.947 12.5835 12.2727 12.1818 12.2727Z" fill="#798F9F"/>
</svg>
