<svg width="17" height="16" viewBox="0 0 17 16" fill="none" xmlns="http://www.w3.org/2000/svg">
<g clip-path="url(#clip0_9862_32421)">
<path d="M5.95434 8.46872H11.5793C11.8385 8.46872 12.0481 8.259 12.0481 7.99997V2.34374C12.0481 2.08471 11.8385 1.87499 11.5793 1.87499H10.1731V1.40624C10.1731 0.630857 9.54222 0 8.76683 0C7.99145 0 7.36059 0.630857 7.36059 1.40624V1.87499H5.95434C5.69531 1.87499 5.4856 2.08471 5.4856 2.34374V7.99997C5.4856 8.259 5.69531 8.46872 5.95434 8.46872ZM8.29808 1.40624C8.29808 1.14758 8.50865 0.937496 8.76683 0.937496C9.02501 0.937496 9.23558 1.14758 9.23558 1.40624V1.87499H8.29808V1.40624Z" fill="#798F9F"/>
<path d="M15.5958 7.75732C15.5115 7.61731 15.3586 7.53125 15.1948 7.53125C14.3688 7.53125 13.6112 7.98962 13.2277 8.72119L11.7899 11.4653C11.5455 11.9304 11.0684 12.2187 10.5439 12.2187H7.36057C7.10154 12.2187 6.89183 12.009 6.89183 11.75C6.89183 11.491 7.10154 11.2812 7.36057 11.2812H10.5438C10.7187 11.2812 10.878 11.1852 10.9596 11.0299C11.0407 10.8749 11.286 10.4067 11.4968 10.0044C11.5632 9.87768 11.5586 9.72546 11.4845 9.60302C11.4102 9.48071 11.2775 9.40624 11.1345 9.40624H6.26194C5.63573 9.40624 5.04796 9.65026 4.60485 10.0929L1.83264 12.8651C1.64954 13.0482 1.64954 13.3448 1.83264 13.5279L4.17638 15.8626C4.26793 15.9542 4.38793 16.0001 4.5078 16.0001C4.62767 16.0001 4.74767 15.9542 4.83922 15.8626L6.61717 14.0937H10.5438C11.7679 14.0937 12.882 13.4199 13.4506 12.3354L15.6094 8.21789C15.6863 8.07275 15.6809 7.89795 15.5958 7.75732Z" fill="#798F9F"/>
</g>
<defs>
<clipPath id="clip0_9862_32421">
<rect width="16" height="16" fill="white" transform="translate(0.664062)"/>
</clipPath>
</defs>
</svg>
