<svg width="16" height="16" viewBox="0 0 16 16" fill="none" xmlns="http://www.w3.org/2000/svg">
<path d="M14.6667 4.41478V11.4967C14.6667 12.2386 14.1905 12.9805 13.4422 13.2502L10.0408 14.5318C9.83673 14.5992 9.63267 14.6666 9.36053 14.6666C9.0204 14.6666 8.61227 14.5318 8.27213 14.3294C8.13607 14.1945 7.932 14.0596 7.86393 13.9247H5.27891C4.25851 13.9247 3.37415 13.1154 3.37415 12.0362V11.3618C3.37415 11.092 3.57823 10.8222 3.91837 10.8222C4.25851 10.8222 4.46259 11.0245 4.46259 11.3618V12.0362C4.46259 12.5084 4.87075 12.8456 5.27891 12.8456H7.5238V3.1333H5.27891C4.80272 3.1333 4.46259 3.47053 4.46259 3.94266V4.61712C4.46259 4.8869 4.25851 5.15669 3.91837 5.15669C3.57823 5.15669 3.37415 4.8869 3.37415 4.61712V3.94266C3.37415 2.93096 4.19048 2.05415 5.27891 2.05415H7.86393C8 1.91926 8.13607 1.78436 8.27213 1.64947C8.81633 1.31224 9.4286 1.24479 10.0408 1.44713L13.4422 2.72862C14.1225 2.93096 14.6667 3.67287 14.6667 4.41478Z" fill="#FF234B"/>
<path d="M3.23813 9.87794C3.10208 9.87794 2.96603 9.81054 2.898 9.74307L1.53745 8.39414C1.46943 8.32667 1.46943 8.25927 1.4014 8.25927C1.4014 8.1918 1.33337 8.12434 1.33337 8.05694C1.33337 7.98947 1.33337 7.922 1.4014 7.8546C1.4014 7.78714 1.46943 7.71967 1.53745 7.71967L2.898 6.37075C3.10208 6.16841 3.44222 6.16841 3.6463 6.37075C3.85038 6.57309 3.85038 6.91034 3.6463 7.11267L3.17011 7.5848H5.95923C6.23133 7.5848 6.50344 7.78714 6.50344 8.12434C6.50344 8.4616 6.23133 8.52907 5.95923 8.52907H3.10208L3.57827 9.00114C3.78235 9.20347 3.78235 9.54074 3.57827 9.74307C3.51025 9.81054 3.37419 9.87794 3.23813 9.87794Z" fill="#FF234B"/>
</svg>
