<svg width="25" height="25" viewBox="0 0 25 25" fill="none" xmlns="http://www.w3.org/2000/svg">
<path fill-rule="evenodd" clip-rule="evenodd" d="M8 3.5C7.37868 3.5 6.875 4.00368 6.875 4.625V5.75H5.75C4.50736 5.75 3.5 6.75736 3.5 8V19.25C3.5 20.4926 4.50736 21.5 5.75 21.5H19.25C20.4926 21.5 21.5 20.4926 21.5 19.25V8C21.5 6.75736 20.4926 5.75 19.25 5.75H18.125V4.625C18.125 4.00368 17.6213 3.5 17 3.5C16.3787 3.5 15.875 4.00368 15.875 4.625V5.75H9.125V4.625C9.125 4.00368 8.62132 3.5 8 3.5ZM8 9.125C7.37868 9.125 6.875 9.62868 6.875 10.25C6.875 10.8713 7.37868 11.375 8 11.375H17C17.6213 11.375 18.125 10.8713 18.125 10.25C18.125 9.62868 17.6213 9.125 17 9.125H8Z" fill="#798F9F"/>
</svg>
