<svg width="106" height="134" viewBox="0 0 106 134" fill="none" xmlns="http://www.w3.org/2000/svg">
<path d="M68.3203 39.2578C64.3248 39.2578 61.0742 35.1486 61.0742 30.0977V0H24.0156C17.737 0 12.6289 6.45739 12.6289 14.3945V119.605C12.6289 127.543 17.737 134 24.0156 134H81.9844C88.263 134 93.3711 127.543 93.3711 119.605V39.2578H68.3203ZM29.6055 94.2188H44.6608C46.3758 94.2188 47.7663 95.9765 47.7663 98.1445C47.7663 100.313 46.3758 102.07 44.6608 102.07H29.6055C27.8904 102.07 26.5 100.313 26.5 98.1445C26.5 95.9765 27.8904 94.2188 29.6055 94.2188ZM26.5 77.207C26.5 75.039 27.8904 73.2812 29.6055 73.2812H75.1523C76.8674 73.2812 78.2578 75.039 78.2578 77.207C78.2578 79.3751 76.8674 81.1328 75.1523 81.1328H29.6055C27.8904 81.1328 26.5 79.3751 26.5 77.207ZM75.1523 52.3438C76.8674 52.3438 78.2578 54.1015 78.2578 56.2695C78.2578 58.4376 76.8674 60.1953 75.1523 60.1953H29.6055C27.8904 60.1953 26.5 58.4376 26.5 56.2695C26.5 54.1015 27.8904 52.3438 29.6055 52.3438H75.1523Z" fill="#B5C0CB"/>
<path d="M67.2852 30.0977C67.2852 30.8192 67.7495 31.4063 68.3203 31.4063H91.9869C91.4188 30.0804 90.688 28.8626 89.81 27.8123L69.8474 3.93784C69.0727 3.01136 68.2098 2.2385 67.2854 1.62817V30.0977H67.2852Z" fill="#B5C0CB"/>
</svg>
