<svg width="16" height="16" viewBox="0 0 16 16" fill="none" xmlns="http://www.w3.org/2000/svg">
<path d="M15.9882 7.55686V13.5392C15.9882 13.833 15.8715 14.1148 15.6637 14.3226C15.456 14.5303 15.1742 14.647 14.8804 14.647C14.5866 14.647 14.3048 14.5303 14.097 14.3226C13.8893 14.1148 13.7725 13.833 13.7725 13.5392V6.22746H14.6588C15.0114 6.22746 15.3495 6.36752 15.5988 6.61683C15.8482 6.86614 15.9882 7.20428 15.9882 7.55686ZM14.2157 15.9764H2.69416C2.333 16.028 1.9648 15.9947 1.61872 15.8793C1.27263 15.7639 0.958158 15.5696 0.700193 15.3116C0.442229 15.0536 0.247855 14.7392 0.13246 14.3931C0.017064 14.047 -0.0161851 13.6788 0.0353443 13.3176V2.68238C-0.0161851 2.32122 0.017064 1.95302 0.13246 1.60694C0.247855 1.26085 0.442229 0.946378 0.700193 0.688414C0.958158 0.430449 1.27263 0.236075 1.61872 0.12068C1.9648 0.00528424 2.333 -0.0279648 2.69416 0.0235646H9.78432C10.1455 -0.0279648 10.5137 0.00528424 10.8598 0.12068C11.2058 0.236075 11.5203 0.430449 11.7783 0.688414C12.0362 0.946378 12.2306 1.26085 12.346 1.60694C12.4614 1.95302 12.4947 2.32122 12.4431 2.68238V14.2039C12.4431 14.674 12.6299 15.1249 12.9623 15.4573C13.2947 15.7897 13.7456 15.9764 14.2157 15.9764ZM2.91572 4.45492C2.91572 4.63121 2.98575 4.80028 3.11041 4.92493C3.23507 5.04959 3.40414 5.11962 3.58043 5.11962H6.23924C6.41553 5.11962 6.5846 5.04959 6.70925 4.92493C6.83391 4.80028 6.90394 4.63121 6.90394 4.45492C6.90394 4.27863 6.83391 4.10956 6.70925 3.9849C6.5846 3.86025 6.41553 3.79021 6.23924 3.79021H3.58043C3.40414 3.79021 3.23507 3.86025 3.11041 3.9849C2.98575 4.10956 2.91572 4.27863 2.91572 4.45492ZM9.56275 11.5451C9.56275 11.3688 9.49272 11.1997 9.36807 11.0751C9.24341 10.9504 9.07434 10.8804 8.89805 10.8804H3.58043C3.40414 10.8804 3.23507 10.9504 3.11041 11.0751C2.98575 11.1997 2.91572 11.3688 2.91572 11.5451C2.91572 11.7214 2.98575 11.8904 3.11041 12.0151C3.23507 12.1398 3.40414 12.2098 3.58043 12.2098H8.89805C9.07434 12.2098 9.24341 12.1398 9.36807 12.0151C9.49272 11.8904 9.56275 11.7214 9.56275 11.5451ZM9.56275 8C9.56275 7.82371 9.49272 7.65464 9.36807 7.52998C9.24341 7.40533 9.07434 7.3353 8.89805 7.3353H3.58043C3.40414 7.3353 3.23507 7.40533 3.11041 7.52998C2.98575 7.65464 2.91572 7.82371 2.91572 8C2.91572 8.17629 2.98575 8.34536 3.11041 8.47002C3.23507 8.59467 3.40414 8.6647 3.58043 8.6647H8.89805C9.07434 8.6647 9.24341 8.59467 9.36807 8.47002C9.49272 8.34536 9.56275 8.17629 9.56275 8Z" fill="#B5C0CB"/>
</svg>
