<svg width="24" height="25" viewBox="0 0 24 25" fill="none" xmlns="http://www.w3.org/2000/svg">
<path d="M5.9999 5.3001C5.9999 4.63736 5.46264 4.1001 4.7999 4.1001C4.13716 4.1001 3.5999 4.63736 3.5999 5.3001V14.0212C2.88254 14.4361 2.3999 15.2118 2.3999 16.1001C2.3999 16.9884 2.88254 17.764 3.5999 18.179V19.7001C3.5999 20.3628 4.13716 20.9001 4.7999 20.9001C5.46264 20.9001 5.9999 20.3628 5.9999 19.7001V18.179C6.71726 17.764 7.1999 16.9884 7.1999 16.1001C7.1999 15.2118 6.71726 14.4361 5.9999 14.0212V5.3001Z" fill="#FF3263"/>
<path d="M13.1999 5.3001C13.1999 4.63736 12.6626 4.1001 11.9999 4.1001C11.3372 4.1001 10.7999 4.63736 10.7999 5.3001V6.82117C10.0825 7.23615 9.5999 8.01176 9.5999 8.9001C9.5999 9.78844 10.0825 10.564 10.7999 10.979V19.7001C10.7999 20.3628 11.3372 20.9001 11.9999 20.9001C12.6626 20.9001 13.1999 20.3628 13.1999 19.7001V10.979C13.9173 10.564 14.3999 9.78844 14.3999 8.9001C14.3999 8.01176 13.9173 7.23615 13.1999 6.82117V5.3001Z" fill="#FF3263"/>
<path d="M19.1999 4.1001C19.8626 4.1001 20.3999 4.63736 20.3999 5.3001V14.0212C21.1173 14.4361 21.5999 15.2118 21.5999 16.1001C21.5999 16.9884 21.1173 17.764 20.3999 18.179V19.7001C20.3999 20.3628 19.8626 20.9001 19.1999 20.9001C18.5372 20.9001 17.9999 20.3628 17.9999 19.7001V18.179C17.2825 17.764 16.7999 16.9884 16.7999 16.1001C16.7999 15.2118 17.2825 14.4361 17.9999 14.0212V5.3001C17.9999 4.63736 18.5372 4.1001 19.1999 4.1001Z" fill="#FF3263"/>
</svg>
