<svg width="12" height="12" viewBox="0 0 12 12" fill="none" xmlns="http://www.w3.org/2000/svg">
<g clip-path="url(#clip0_5183_19112)">
<path d="M11.5053 9.11644C11.6627 9.27315 11.7877 9.45939 11.8731 9.66449C11.9585 9.86959 12.0026 10.0895 12.0028 10.3117C12.0031 10.5338 11.9595 10.7539 11.8746 10.9592C11.7897 11.1645 11.6652 11.351 11.5081 11.5081C11.351 11.6652 11.1645 11.7898 10.9592 11.8746C10.7539 11.9595 10.5338 12.0031 10.3117 12.0028C10.0895 12.0026 9.8696 11.9585 9.6645 11.8731C9.4594 11.7877 9.27316 11.6627 9.11644 11.5053L6 8.38882L2.88356 11.5053C2.56637 11.8201 2.13734 11.9964 1.69043 11.9956C1.24351 11.9948 0.81514 11.8169 0.499124 11.5008C0.183108 11.1848 0.00520696 10.7565 0.00438106 10.3095C0.00355516 9.86263 0.179872 9.4336 0.494717 9.11641L3.61116 5.99998L0.494741 2.88356C0.177964 2.56678 0 2.13714 0 1.68915C0 1.24116 0.177964 0.811518 0.494741 0.494741C0.811518 0.177964 1.24116 0 1.68915 0C2.13714 0 2.56678 0.177964 2.88356 0.494741L6 3.61118L9.11644 0.494717C9.43347 0.179176 9.86272 0.00226525 10.31 0.00279256C10.7573 0.00331986 11.1862 0.181242 11.5024 0.49753C11.8187 0.813818 11.9967 1.24265 11.9972 1.68995C11.9977 2.13725 11.8208 2.5665 11.5053 2.88354L8.38882 5.99998L11.5053 9.11644Z" fill="#FF234B"/>
</g>
<defs>
<clipPath id="clip0_5183_19112">
<rect width="12" height="12" fill="white"/>
</clipPath>
</defs>
</svg>
