<svg width="127" height="131" viewBox="0 0 127 131" fill="none" xmlns="http://www.w3.org/2000/svg">
<path d="M96.6553 14.3353L99.348 10.4626C100.765 8.42528 103.368 8.07394 105.168 9.67707C106.968 11.2802 107.278 14.226 105.862 16.2633L103.169 20.136C130.843 47.896 135.218 95.9013 112.059 129.209C110.643 131.246 108.04 131.598 106.24 129.994C104.439 128.391 104.129 125.445 105.545 123.408C106.184 122.49 104.641 116.635 98.3374 111.021C92.0335 105.407 86.4247 104.895 85.7866 105.813C84.37 107.85 81.767 108.201 79.9668 106.598C78.1666 104.995 77.8561 102.049 79.2727 100.012C79.9108 99.0941 78.3686 93.2386 72.0647 87.6249C65.7607 82.0111 60.3691 81.6919 59.731 82.6097L31.1981 123.646C25.5444 131.777 15.1041 133.187 7.91903 126.788C0.73398 120.39 -0.511231 108.575 5.14254 100.443C6.5591 98.4058 9.1621 98.0545 10.9623 99.6576C12.7625 101.261 13.073 104.207 11.6564 106.244C8.83084 110.308 9.45379 116.219 13.0447 119.416C16.6356 122.614 21.8586 121.909 24.6842 117.845L53.2171 76.8089C53.8552 75.8911 52.313 70.0357 46.0091 64.4219C40.3109 59.3476 35.549 58.6749 34.1789 59.2555C34.1664 59.277 34.1511 59.2964 34.1386 59.3179C32.8696 61.4691 30.2967 62.0513 28.3901 60.6158C28.2992 60.5463 28.2109 60.4736 28.1249 60.3971C28.0962 60.3715 28.0833 60.333 28.0552 60.3067C27.9922 60.2567 27.9166 60.2466 27.8554 60.1921C26.0552 58.5889 25.7447 55.6431 27.1613 53.6058C27.7994 52.688 26.2572 46.8325 19.9532 41.2188C13.6493 35.605 8.04057 35.0924 7.40243 36.0102C5.98587 38.0476 3.38288 38.3989 1.58265 36.7958C-0.217574 35.1926 -0.528025 32.2468 0.888537 30.2095C24.0477 -3.09788 66.3053 -9.57615 96.6553 14.3353Z" fill="#B5C0CB"/>
</svg>
