<svg width="16" height="16" viewBox="0 0 16 16" fill="none" xmlns="http://www.w3.org/2000/svg">
<g clip-path="url(#clip0_9260_34646)">
<path d="M8 6.45728C9.50152 6.45728 10.7188 5.24005 10.7188 3.73853C10.7188 2.237 9.50152 1.01978 8 1.01978C6.49848 1.01978 5.28125 2.237 5.28125 3.73853C5.28125 5.24005 6.49848 6.45728 8 6.45728Z" fill="#B5C0CB"/>
<path d="M13.5 6.45728C14.4492 6.45728 15.2188 5.68777 15.2188 4.73853C15.2188 3.78929 14.4492 3.01978 13.5 3.01978C12.5508 3.01978 11.7812 3.78929 11.7812 4.73853C11.7812 5.68777 12.5508 6.45728 13.5 6.45728Z" fill="#B5C0CB"/>
<path d="M2.5 6.45728C3.44924 6.45728 4.21875 5.68777 4.21875 4.73853C4.21875 3.78929 3.44924 3.01978 2.5 3.01978C1.55076 3.01978 0.78125 3.78929 0.78125 4.73853C0.78125 5.68777 1.55076 6.45728 2.5 6.45728Z" fill="#B5C0CB"/>
<path d="M4.19344 8.00075C3.51688 7.44644 2.90416 7.51982 2.12188 7.51982C0.951875 7.51982 0 8.46607 0 9.62888V13.0417C0 13.5467 0.412188 13.9573 0.919062 13.9573C3.10738 13.9573 2.84375 13.9969 2.84375 13.8629C2.84375 11.4446 2.55731 9.67116 4.19344 8.00075Z" fill="#B5C0CB"/>
<path d="M8.74403 7.53224C7.37766 7.41827 6.19 7.53355 5.16559 8.37911C3.45131 9.75224 3.78122 11.6011 3.78122 13.8629C3.78122 14.4613 4.26809 14.9572 4.87559 14.9572C11.4719 14.9572 11.7344 15.17 12.1256 14.3038C12.2539 14.0109 12.2187 14.104 12.2187 11.3016C12.2187 9.0758 10.2914 7.53224 8.74403 7.53224Z" fill="#B5C0CB"/>
<path d="M13.8781 7.51974C13.0916 7.51974 12.4822 7.44711 11.8066 8.00068C13.4305 9.65868 13.1563 11.3111 13.1563 13.8629C13.1563 13.9977 12.9374 13.9572 15.0481 13.9572C15.5731 13.9572 16 13.5319 16 13.0091V9.6288C16 8.46599 15.0481 7.51974 13.8781 7.51974Z" fill="#B5C0CB"/>
</g>
<defs>
<clipPath id="clip0_9260_34646">
<rect width="16" height="16" fill="white"/>
</clipPath>
</defs>
</svg>
