<svg width="16" height="16" viewBox="0 0 16 16" fill="none" xmlns="http://www.w3.org/2000/svg">
<g clip-path="url(#clip0_6932_25567)">
<path d="M4.19678 9.875C4.66602 10.8114 5.46362 11.5487 6.44836 11.9281C6.15674 11.3633 5.94226 10.6492 5.81116 9.875H4.19678Z" fill="#FF234B"/>
<path d="M4.19678 6.125H5.81116C5.94226 5.35083 6.15674 4.63672 6.44836 4.0719C5.46362 4.45129 4.66602 5.1886 4.19678 6.125Z" fill="#FF234B"/>
<path d="M8.01892 3.7876C8.00891 3.78748 7.99976 3.78467 7.98987 3.78467C7.57361 3.7981 7.02954 4.67041 6.7605 6.125H9.23938C8.97217 4.6803 8.43408 3.81226 8.01892 3.7876Z" fill="#FF234B"/>
<path d="M7.98987 12.2153C7.99976 12.2152 8.00891 12.2125 8.01892 12.2124C8.43396 12.1877 8.97217 11.3198 9.23938 9.875H6.7605C7.02954 11.3296 7.57361 12.2019 7.98987 12.2153Z" fill="#FF234B"/>
<path d="M5.65625 8C5.65625 7.68811 5.66907 7.37378 5.69446 7.0625H3.85059C3.78137 7.36511 3.7373 7.67676 3.7373 8C3.7373 8.32324 3.78149 8.63489 3.85059 8.9375H5.69446C5.66907 8.62622 5.65625 8.31189 5.65625 8Z" fill="#FF234B"/>
<path d="M9.56982 4.10498C9.85242 4.66431 10.0604 5.36646 10.1888 6.125H11.7153C11.2625 5.22119 10.5081 4.49512 9.56982 4.10498Z" fill="#FF234B"/>
<path d="M10.3438 8C10.3438 8.31189 10.3309 8.62622 10.3055 8.9375H12.0615C12.1307 8.63489 12.1748 8.32324 12.1748 8C12.1748 7.67676 12.1307 7.36511 12.0615 7.0625H10.3055C10.3309 7.37378 10.3438 7.68811 10.3438 8Z" fill="#FF234B"/>
<path d="M16 8C16 3.60596 12.394 0 8 0C3.60596 0 0 3.60596 0 8C0 12.394 3.60596 16 8 16C9.47034 16 10.899 15.5677 12.1465 14.8065L14.9545 15.6762C15.407 15.8164 15.8359 15.4013 15.7107 14.9444L14.9004 11.9885C15.5997 10.78 16 9.40576 16 8ZM8.0376 13.1521C8.0249 13.1526 8.01294 13.1563 8 13.1563C7.99524 13.1563 7.99097 13.1548 7.98621 13.1547C7.97608 13.1548 7.96619 13.1563 7.95605 13.1563C5.11292 13.1563 2.7998 10.8431 2.7998 8C2.7998 5.15686 5.11292 2.84375 7.95605 2.84375C7.96619 2.84375 7.97608 2.84522 7.98621 2.84534C7.99097 2.84522 7.99524 2.84375 8 2.84375C8.01294 2.84375 8.0249 2.84741 8.0376 2.8479C10.843 2.89209 13.1123 5.18433 13.1123 8C13.1123 10.8157 10.843 13.1079 8.0376 13.1521Z" fill="#FF234B"/>
<path d="M6.63269 7.0625C6.60791 7.35913 6.59375 7.67151 6.59375 8C6.59375 8.32849 6.60791 8.64087 6.63269 8.9375H9.36731C9.39209 8.64087 9.40625 8.32849 9.40625 8C9.40625 7.67151 9.39209 7.35913 9.36731 7.0625H6.63269Z" fill="#FF234B"/>
<path d="M9.56982 11.895C10.5081 11.5049 11.2625 10.7788 11.7153 9.875H10.1888C10.0604 10.6335 9.85242 11.3357 9.56982 11.895Z" fill="#FF234B"/>
</g>
<defs>
<clipPath id="clip0_6932_25567">
<rect width="16" height="16" fill="white"/>
</clipPath>
</defs>
</svg>
