<svg width="16" height="16" viewBox="0 0 16 16" fill="none" xmlns="http://www.w3.org/2000/svg">
<path d="M8.38239 6.55156C8.80213 6.92993 9.34719 7.13934 9.9123 7.13934C10.4774 7.13934 11.0225 6.92993 11.4422 6.55156V4.44313C11.4422 4.28711 11.4286 4.13138 11.4015 3.97773L10.7614 0.350342H8.38239V6.55156Z" fill="#B5C0CB"/>
<path d="M4.55756 4.44313V6.55156C4.9773 6.92993 5.52236 7.13934 6.08747 7.13934C6.65259 7.13934 7.19765 6.92993 7.61739 6.55156V0.350342H5.23835L4.59829 3.97773C4.57117 4.13138 4.55754 4.28711 4.55756 4.44313Z" fill="#B5C0CB"/>
<path d="M15.8755 4.35463H15.8753L14.6633 1.09776C14.5811 0.878737 14.4342 0.68992 14.2421 0.556411C14.05 0.422902 13.8219 0.351026 13.5879 0.350342H11.5382L12.155 3.84477C12.1898 4.04234 12.2072 4.24256 12.2072 4.44316V6.55159C12.4904 6.80625 12.8326 6.98633 13.2029 7.07555C13.5731 7.16477 13.9598 7.16032 14.3279 7.0626C14.696 6.96487 15.0339 6.77696 15.3112 6.51585C15.5884 6.25473 15.7962 5.92864 15.9158 5.56705C16.0406 5.1909 16.0262 4.76025 15.8755 4.35463Z" fill="#B5C0CB"/>
<path d="M3.79262 4.44313C3.79262 4.24254 3.81011 4.04232 3.8449 3.84477L4.46165 0.350342H2.41171C2.17779 0.351031 1.94962 0.422904 1.75754 0.556406C1.56546 0.689908 1.41856 0.878713 1.33638 1.09772L0.124391 4.3546C-0.0262111 4.76025 -0.0405541 5.1909 0.084051 5.56683C0.203597 5.92846 0.411383 6.2546 0.688626 6.51576C0.965869 6.77691 1.30383 6.96486 1.67195 7.0626C2.04007 7.16035 2.42675 7.1648 2.79702 7.07558C3.1673 6.98635 3.5095 6.80625 3.7927 6.55156L3.79262 4.44313Z" fill="#B5C0CB"/>
<path d="M13.7371 7.90426C13.0417 7.90478 12.367 7.66779 11.8247 7.23254C11.2821 7.66726 10.6076 7.90414 9.91229 7.90414C9.21702 7.90414 8.54249 7.66726 7.99988 7.23254C7.45727 7.66726 6.78274 7.90414 6.08747 7.90414C5.3922 7.90414 4.71767 7.66726 4.17506 7.23254C3.80424 7.52998 3.3691 7.73674 2.90428 7.83634C2.43947 7.93594 1.95782 7.92565 1.49768 7.80627V13.7371C1.49832 14.2441 1.70001 14.7302 2.05852 15.0887C2.41704 15.4472 2.9031 15.6489 3.41011 15.6495H12.5897C13.0967 15.6489 13.5827 15.4472 13.9412 15.0887C14.2997 14.7302 14.5014 14.2441 14.502 13.7371V7.80627C14.2522 7.87097 13.9952 7.90389 13.7371 7.90426ZM10.6791 11.3278L9.71416 12.4078L9.86003 13.8487C9.86677 13.9153 9.85594 13.9824 9.82862 14.0435C9.8013 14.1046 9.75844 14.1574 9.70432 14.1967C9.6502 14.236 9.58671 14.2605 9.52019 14.2676C9.45368 14.2747 9.38646 14.2642 9.32525 14.2373L7.99988 13.6532L6.67455 14.2373C6.61334 14.2642 6.54612 14.2747 6.47961 14.2676C6.4131 14.2604 6.34962 14.236 6.29551 14.1967C6.24139 14.1574 6.19853 14.1045 6.1712 14.0435C6.14387 13.9824 6.13304 13.9153 6.13977 13.8487L6.28567 12.4078L5.32064 11.3278C5.27607 11.2779 5.24537 11.2172 5.2316 11.1517C5.21783 11.0862 5.22146 11.0183 5.24215 10.9547C5.26283 10.8911 5.29984 10.834 5.34947 10.7891C5.39911 10.7443 5.45964 10.7133 5.52503 10.6991L6.94058 10.3926L7.66949 9.14114C7.70316 9.08333 7.7514 9.03537 7.80939 9.00203C7.86739 8.96869 7.93311 8.95115 8.00001 8.95115C8.0669 8.95115 8.13263 8.96869 8.19062 9.00203C8.24862 9.03537 8.29686 9.08333 8.33052 9.14114L9.05944 10.3926L10.475 10.6991C10.5404 10.7133 10.6009 10.7444 10.6505 10.7892C10.7001 10.8341 10.737 10.8912 10.7577 10.9548C10.7784 11.0184 10.782 11.0863 10.7682 11.1518C10.7544 11.2172 10.7237 11.2779 10.6791 11.3278Z" fill="#B5C0CB"/>
</svg>
