<svg width="17" height="16" viewBox="0 0 17 16" fill="none" xmlns="http://www.w3.org/2000/svg">
<g clip-path="url(#clip0_5778_23212)">
<path d="M11.2468 1.28591L3.9861 5.00324L1.1001 3.58324L8.23276 0.0612441C8.39276 -0.0200892 8.58476 -0.0200892 8.75276 0.0612441L11.2468 1.28591Z" fill="#798F9F"/>
<path d="M15.8921 3.58329L8.50407 7.24329L5.7374 5.87996L5.3374 5.67663L12.6061 1.95996L13.0061 2.16263L15.8921 3.58329Z" fill="#798F9F"/>
<path d="M7.912 8.29794L7.904 15.9999L0.828 12.3073C0.628 12.2019 0.5 11.9906 0.5 11.7633V4.63794L3.49867 6.11527V8.71261C3.49867 9.04527 3.77067 9.32127 4.09867 9.32127C4.42667 9.32127 4.69867 9.04527 4.69867 8.71261V6.71594L5.09867 6.91061L7.912 8.29794Z" fill="#798F9F"/>
<path d="M16.492 4.646L9.112 8.29L9.104 15.992L16.5 12.13L16.492 4.646Z" fill="#798F9F"/>
</g>
<defs>
<clipPath id="clip0_5778_23212">
<rect width="16" height="16" fill="white" transform="translate(0.5)"/>
</clipPath>
</defs>
</svg>
