<svg width="17" height="16" viewBox="0 0 17 16" fill="none" xmlns="http://www.w3.org/2000/svg">
<path d="M16.082 3.69025C15.9192 3.50036 15.7172 3.34794 15.4899 3.24344C15.2626 3.13894 15.0154 3.08482 14.7653 3.0848H4.9995L4.74969 2.08497C4.65569 1.70973 4.43897 1.37667 4.13397 1.13873C3.82897 0.900787 3.45319 0.77161 3.06635 0.771729H1.07827C0.924902 0.771729 0.777817 0.832653 0.669371 0.941099C0.560924 1.04955 0.5 1.19663 0.5 1.35C0.5 1.50336 0.560924 1.65045 0.669371 1.75889C0.777817 1.86734 0.924902 1.92826 1.07827 1.92826H3.06635C3.19536 1.92814 3.32071 1.97116 3.42246 2.05048C3.5242 2.1298 3.5965 2.24087 3.62785 2.36601L4.9064 9.79733C4.99039 10.3435 5.26713 10.8415 5.68654 11.2013C6.10594 11.5611 6.64029 11.7589 7.19287 11.7588H13.4682C14.0208 11.7589 14.5552 11.5611 14.9746 11.2013C15.394 10.8415 15.6707 10.3435 15.7547 9.79733L16.4798 5.08329C16.5179 4.83614 16.502 4.58369 16.4333 4.34325C16.3646 4.10281 16.2448 3.88005 16.082 3.69025Z" fill="white"/>
<path d="M7.72692 15.2283C8.52534 15.2283 9.17259 14.581 9.17259 13.7826C9.17259 12.9842 8.52534 12.3369 7.72692 12.3369C6.9285 12.3369 6.28125 12.9842 6.28125 13.7826C6.28125 14.581 6.9285 15.2283 7.72692 15.2283Z" fill="white"/>
<path d="M12.9352 15.2283C13.7336 15.2283 14.3808 14.581 14.3808 13.7826C14.3808 12.9842 13.7336 12.3369 12.9352 12.3369C12.1368 12.3369 11.4895 12.9842 11.4895 13.7826C11.4895 14.581 12.1368 15.2283 12.9352 15.2283Z" fill="white"/>
</svg>
