<svg width="120" height="56" viewBox="0 0 120 56" fill="none" xmlns="http://www.w3.org/2000/svg">
<g clip-path="url(#clip0_10578_35322)">
<mask id="mask0_10578_35322" style="mask-type:luminance" maskUnits="userSpaceOnUse" x="-241" y="-3" width="391" height="553">
<path d="M-240.75 549.729H149.655V-2.41504H-240.75V549.729Z" fill="white"/>
</mask>
<g mask="url(#mask0_10578_35322)">
<path d="M69.8364 36.9185C69.8364 36.9185 68.7464 34.5923 67.7357 32.3985C66.8339 30.4703 65.9859 28.6543 65.9492 28.575C65.8862 28.449 65.82 28.2103 65.883 27.9453C65.9361 27.7532 66.1584 27.4017 66.3204 27.1898C66.6352 26.7957 66.7415 26.5799 66.7841 26.292L71.4038 36.1958L71.9534 37.3658C72.5233 37.253 73.0834 37.0772 73.6035 36.8588C72.9844 35.517 72.3443 34.1417 71.9534 33.2734L71.937 33.2767C71.937 33.2767 68.1299 25.0957 68.0603 24.9436C67.9908 24.8137 67.9043 24.5855 67.9908 24.3068C68.0367 24.1048 68.2656 23.767 68.4375 23.548C68.7464 23.1472 68.8454 22.9452 68.8821 22.6567L72.3777 30.1457L75.1545 36.0869C75.6451 35.7551 76.1154 35.3976 76.5397 34.9969C75.7074 33.2006 74.601 30.8251 74.0482 29.6387H74.0442C74.0442 29.6387 70.2371 21.4539 70.161 21.2919C70.098 21.166 70.0187 20.9207 70.0849 20.6721C70.1374 20.4734 70.3735 20.1087 70.5453 19.9067C70.8503 19.5027 70.9493 19.2903 70.9828 18.9984L74.5348 26.6133L77.7884 33.5915C78.9256 32.0076 79.6077 30.0893 79.6077 28.0018C79.6077 22.7268 75.3231 18.4449 70.0482 18.4449C64.7733 18.4449 60.4985 22.7268 60.4985 28.0018C60.4985 31.7892 62.6956 35.0428 65.883 36.5867C64.8992 34.4827 63.8846 32.3093 63.8518 32.2135C63.7889 32.1007 63.703 31.862 63.7889 31.6036C63.8256 31.3944 64.0643 31.0468 64.2329 30.8415C64.551 30.4336 64.6474 30.2185 64.6769 29.9332L68.143 37.3658C68.7595 37.495 69.4055 37.5547 70.0482 37.5547H70.1276C70.0384 37.3488 69.9321 37.1271 69.8364 36.9185Z" fill="#E51D22"/>
<path d="M6.2062 27.4024H7.9363C8.45244 27.4024 8.92006 27.3027 9.31094 27.1171C9.86774 26.8692 10.2881 26.481 10.6102 25.9379C10.9446 25.4172 11.1001 24.8145 11.1001 24.1449C11.1001 23.3959 10.8784 22.8594 10.4311 22.5545C10.1196 22.319 9.52999 22.2134 8.69838 22.2134C8.21437 22.2134 7.87662 22.2666 7.71069 22.3728C7.54148 22.462 7.42212 22.6738 7.34276 22.9454L6.2062 27.4024ZM5.96091 28.2439L4.74499 33.0125C4.70498 33.1417 4.68859 33.2741 4.68859 33.3968C4.68859 33.5653 4.75811 33.6847 4.88403 33.7647C5.027 33.8572 5.28474 33.8834 5.67628 33.8834H7.13093C7.83005 33.8834 8.40653 33.7647 8.86693 33.4958C9.33782 33.2341 9.71559 32.8131 10.0199 32.2366C10.3117 31.6601 10.4606 31.0338 10.4606 30.4009C10.4606 29.7221 10.2455 29.2119 9.8179 28.821C9.39029 28.4393 8.75413 28.2439 7.9363 28.2439H5.96091ZM2.85945 21.3753H10.2685C11.4286 21.3753 12.3363 21.6402 12.9561 22.1833C13.5791 22.7106 13.9005 23.4064 13.9005 24.2478C13.9005 25.149 13.5791 25.8947 12.9325 26.4947C12.293 27.1171 11.2398 27.508 9.76805 27.7107C10.9243 27.8136 11.8025 28.1481 12.419 28.7246C13.0092 29.2847 13.3207 30.0232 13.3207 30.898C13.3207 31.6772 13.0918 32.3796 12.6314 32.9921C12.2766 33.446 11.6936 33.8375 10.8784 34.1982C10.0533 34.553 9.17518 34.7354 8.21437 34.7354H0L0.192161 33.9333H1.06049C1.57401 33.9333 1.89209 33.6486 2.01146 33.1187L4.57906 23.068C4.60923 22.9454 4.61907 22.8234 4.61907 22.7106C4.61907 22.5545 4.56267 22.4286 4.44002 22.319C4.30427 22.22 4.06554 22.1833 3.74418 22.1833H2.66401L2.85945 21.3753Z" fill="#231F20"/>
<path d="M21.932 24.7112L19.003 29.4857H22.5681L21.932 24.7112ZM22.9229 21.3743H24.1284L25.6296 32.8895C25.6761 33.2502 25.7824 33.5021 25.9542 33.6378C26.1962 33.8234 26.5209 33.9329 26.9157 33.9329H27.3098L27.1013 34.7344H21.2361L21.4283 33.9329H21.869C22.3228 33.9329 22.618 33.8765 22.7937 33.7473C22.9557 33.628 23.0456 33.4358 23.0456 33.1938C23.0456 33.1013 23.0285 33.0115 23.0056 32.8895L22.6973 30.5029H18.393L17.5313 31.8854C17.2965 32.2894 17.1837 32.6508 17.1837 32.9721C17.1837 33.2738 17.2762 33.5086 17.4519 33.6745C17.6375 33.8372 17.9261 33.9329 18.317 33.9329H18.6646L18.4691 34.7344H13.8999L14.1117 33.9329C14.4967 33.8962 14.8115 33.8103 15.0332 33.6378C15.4805 33.3099 15.8156 32.9492 16.0373 32.5813L22.9229 21.3743Z" fill="#231F20"/>
<path d="M31.462 21.3743H35.2927L39.5996 30.6754L41.1081 24.1314C41.1841 23.8462 41.2202 23.6146 41.2202 23.452C41.2202 23.0677 41.0812 22.7561 40.849 22.5338C40.6037 22.3056 40.2758 22.1829 39.8718 22.1829H39.5104L39.7124 21.3743H44.1098L43.8875 22.1829C43.4337 22.1993 43.0789 22.3351 42.8441 22.5738C42.503 22.9221 42.2643 23.3923 42.1253 23.9754L39.6429 34.7344H38.6487L33.6918 24.1347L31.7368 31.4972C31.6443 31.848 31.5978 32.1235 31.5978 32.3622C31.5978 32.8226 31.7604 33.1938 32.0516 33.4791C32.3598 33.7637 32.7973 33.91 33.3672 33.9329L33.1816 34.7344H28.2681L28.4635 33.9329C29.0164 33.8962 29.4971 33.7303 29.848 33.4024C30.2061 33.0679 30.4579 32.6403 30.6042 32.0704L32.9035 23.452C32.9527 23.2336 32.9829 23.071 32.9829 22.968C32.9829 22.7293 32.8904 22.5371 32.695 22.3817C32.4989 22.2525 32.1611 22.1829 31.6837 22.1829H31.2331L31.462 21.3743Z" fill="#231F20"/>
<path d="M46.3198 21.3743H52.2807L52.042 22.1829H51.3665C51.0582 22.1829 50.8392 22.2525 50.6837 22.3817C50.5276 22.5371 50.4017 22.7857 50.3027 23.147L48.9641 28.4488L54.0869 23.7766C54.4614 23.4349 54.6397 23.1241 54.6397 22.8591C54.6397 22.6565 54.5604 22.4977 54.4148 22.3718C54.2587 22.2525 54.0141 22.1829 53.6894 22.1829H53.3609L53.5661 21.3743H58.4771L58.2783 22.1829C57.751 22.2164 57.3044 22.3351 56.9293 22.5043C56.562 22.6965 56.1082 23.048 55.5907 23.5477L52.2177 26.623L55.1467 33.0777C55.2431 33.3099 55.3559 33.4686 55.4786 33.5749C55.6012 33.6837 55.7868 33.7703 56.0249 33.8562C56.1711 33.8962 56.4558 33.9329 56.8899 33.9329L56.6879 34.7344H50.7067L50.929 33.9329H51.7042C51.9961 33.9329 52.2046 33.8765 52.3207 33.7703C52.4597 33.6745 52.5227 33.5388 52.5227 33.3958C52.5227 33.2699 52.4997 33.1407 52.4433 33.0318L50.3191 28.3491L48.5896 29.9336L47.7515 33.184C47.7482 33.2568 47.7384 33.3197 47.7384 33.3958C47.7384 33.565 47.8007 33.6942 47.9364 33.7834C48.0558 33.8765 48.2945 33.9329 48.6159 33.9329H49.534L49.3248 34.7344H43.2314L43.4538 33.9329H43.9673C44.3083 33.9329 44.5667 33.8562 44.7458 33.7303C44.8979 33.5912 45.0245 33.3958 45.0907 33.0777L47.6551 23.0382C47.6846 22.945 47.7016 22.8394 47.7016 22.7496C47.7016 22.5673 47.6321 22.4315 47.5023 22.3187C47.3672 22.2361 47.1481 22.1829 46.83 22.1829H46.1309L46.3198 21.3743Z" fill="#231F20"/>
<path d="M87.6332 33.8834C88.2661 33.8834 88.8924 33.7214 89.4689 33.3968C90.0552 33.0551 90.5622 32.5652 90.9996 31.9218C91.4371 31.2955 91.8148 30.3911 92.1526 29.1916C92.4772 28.0019 92.6497 26.8692 92.6497 25.7655C92.6497 24.6086 92.3847 23.7074 91.8647 23.0647C91.3971 22.4981 90.6815 22.2134 89.7306 22.2134C89.2931 22.2134 89.0019 22.2626 88.8491 22.3689C88.7101 22.4587 88.5874 22.6469 88.5146 22.889L85.9201 33.0682C85.8965 33.1613 85.8965 33.2473 85.8965 33.3201C85.8965 33.5089 85.9497 33.6388 86.033 33.7214C86.172 33.8375 86.3674 33.8834 86.6193 33.8834H87.6332ZM84.1573 21.3746H90.1877C91.9106 21.3746 93.2334 21.839 94.1476 22.7866C95.052 23.731 95.5196 25.0598 95.5196 26.7361C95.5196 27.8327 95.3104 28.9102 94.9163 29.97C94.5024 31.0338 94.0119 31.8923 93.3856 32.558C92.7723 33.2013 91.9742 33.7378 91.0127 34.1418C90.0421 34.5399 88.9488 34.7354 87.7486 34.7354H81.3936L81.6126 33.9333H82.315C82.8016 33.9333 83.1066 33.6388 83.2496 33.0453L85.8106 22.9624C85.8375 22.889 85.8506 22.8162 85.8506 22.727C85.8506 22.5545 85.7811 22.4286 85.6519 22.319C85.526 22.2364 85.2709 22.1833 84.8997 22.1833H83.8956L84.1573 21.3746Z" fill="#231F20"/>
<path d="M99.5786 21.3743H105.549L105.298 22.1829H104.632C104.317 22.1829 104.095 22.2525 103.939 22.3817C103.781 22.5371 103.668 22.7857 103.575 23.147L102.233 28.4488L107.349 23.7766C107.717 23.4349 107.912 23.1241 107.912 22.8591C107.912 22.6565 107.829 22.4977 107.674 22.3718C107.504 22.2525 107.283 22.1829 106.971 22.1829H106.62L106.825 21.3743H111.753L111.527 22.1829C111.01 22.2164 110.559 22.3351 110.199 22.5043C109.827 22.6965 109.374 23.048 108.84 23.5477L105.473 26.623L108.423 33.0777C108.502 33.3099 108.618 33.4686 108.728 33.5749C108.846 33.6837 109.042 33.7703 109.277 33.8562C109.436 33.8962 109.724 33.9329 110.152 33.9329L109.944 34.7344H103.972L104.198 33.9329H104.957C105.255 33.9329 105.457 33.8765 105.586 33.7703C105.719 33.6745 105.772 33.5388 105.772 33.3958C105.772 33.2699 105.755 33.1407 105.689 33.0318L103.581 28.3491L101.848 29.9336L101.027 33.184C100.997 33.2568 100.997 33.3197 100.997 33.3958C100.997 33.565 101.067 33.6942 101.193 33.7834C101.319 33.8765 101.56 33.9329 101.878 33.9329H102.782L102.577 34.7344H96.5034L96.7159 33.9329H97.2294C97.5803 33.9329 97.8321 33.8562 98.0046 33.7303C98.164 33.5912 98.2932 33.3958 98.3627 33.0777L100.914 23.0382C100.947 22.945 100.964 22.8394 100.964 22.7496C100.964 22.5673 100.904 22.4315 100.752 22.3187C100.639 22.2361 100.4 22.1829 100.086 22.1829H99.3799L99.5786 21.3743Z" fill="#231F20"/>
<path d="M113.724 21.3743H120L119.795 22.1829H119.073C118.711 22.1829 118.476 22.2361 118.34 22.3351C118.195 22.4413 118.079 22.6237 118.019 22.8591L115.421 33.0679C115.404 33.1807 115.391 33.2738 115.391 33.346C115.391 33.5316 115.438 33.6706 115.55 33.7473C115.726 33.8765 115.968 33.9329 116.293 33.9329H117.234L117.008 34.7344H110.895L111.104 33.9329H111.789C112.293 33.9329 112.591 33.6942 112.694 33.2273L115.292 23.0677C115.332 22.945 115.332 22.8257 115.332 22.7266C115.332 22.5542 115.276 22.4282 115.153 22.3187C115.023 22.219 114.828 22.1829 114.536 22.1829H113.539L113.724 21.3743Z" fill="#231F20"/>
</g>
</g>
<defs>
<clipPath id="clip0_10578_35322">
<rect width="120" height="19.1098" fill="white" transform="translate(0 18.4453)"/>
</clipPath>
</defs>
</svg>
