<svg width="34" height="56" viewBox="0 0 34 56" fill="none" xmlns="http://www.w3.org/2000/svg">
<g clip-path="url(#clip0_10578_35301)">
<path fill-rule="evenodd" clip-rule="evenodd" d="M24.0105 10.0915L24.0007 10.061V10.0854L24.0105 10.0915ZM9.99856 18.6207L4.45802 15.0061V0L9.99733 3.69146L21.7832 11.1963V17.5646L9.99856 10.0585V18.6207ZM29.5412 22.6268L24.0007 19.0122V10.0854L19.1306 6.90854L24.0019 3.69268L29.5412 0.00121951V22.6268ZM17.0382 31.7488L4.45557 23.5378V17.1707L17.037 25.3817V25.3866L17.0395 25.3817L18.7531 24.2634L12.4354 20.1415V13.7732L23.6317 21.0805L23.6722 21.0537L28.5508 24.239L17.0382 31.7488Z" fill="#193369"/>
<path d="M6.87793 37.9395H8.37584L9.34788 40.2699H9.26575L10.2366 37.9395H11.6769V42.3065H10.6227V39.1992H10.7673L9.63839 41.9004H8.96176L7.83894 39.2053H7.92475V42.3065H6.87793V37.9395Z" fill="#193369"/>
<path d="M13.8442 42.3065V37.9395H16.7788V38.8419H14.8911V39.6809H16.6611V40.5858H14.8911V41.3956H16.7788V42.3065H13.8442Z" fill="#193369"/>
<path d="M18.4038 38.8419V37.9395H22.0186V38.8419H20.5036L20.7389 38.6065V42.3065H19.6933V38.6065L19.9275 38.8419H18.4038Z" fill="#193369"/>
<path d="M24.5316 40.7675H25.5416L25.044 39.1699L24.5316 40.7675ZM22.916 42.3065L24.3943 37.9395H25.7255L27.1229 42.3065H26.0209L25.7819 41.5382H24.2681L24.029 42.3065H22.916Z" fill="#193369"/>
<path d="M4.40177 49.257C4.08797 49.257 3.79623 49.2046 3.52779 49.0985C3.26057 48.9936 3.04238 48.8277 2.87322 48.6034C2.70529 48.379 2.61335 48.0863 2.59619 47.7265H3.62953C3.62953 47.8594 3.66385 47.9692 3.73127 48.0558C3.79868 48.1424 3.89062 48.2058 4.00707 48.2473C4.12474 48.2887 4.25345 48.3095 4.39442 48.3095C4.50841 48.3095 4.61506 48.2997 4.71312 48.2802C4.81241 48.2607 4.89208 48.2265 4.95337 48.1753C5.01344 48.1253 5.04408 48.057 5.04408 47.9704C5.04408 47.8643 5.01221 47.7851 4.94847 47.7326C4.8835 47.6814 4.76828 47.6216 4.60035 47.5546L3.64546 47.1412C3.33166 47.007 3.08773 46.8485 2.91244 46.6655C2.73838 46.4838 2.65135 46.2351 2.65135 45.9204C2.65135 45.5521 2.80212 45.2534 3.10489 45.0277C3.40643 44.8009 3.82075 44.6875 4.34538 44.6875C4.87983 44.6875 5.29046 44.8131 5.57607 45.0643C5.86168 45.3143 6.02225 45.6716 6.05658 46.1363H5.02937C5.00363 45.9936 4.93989 45.8729 4.83815 45.7753C4.73763 45.6777 4.57338 45.629 4.34661 45.629C4.18358 45.629 4.0512 45.6582 3.95068 45.718C3.85017 45.7777 3.80114 45.8521 3.80114 45.9412C3.80114 46.0241 3.83301 46.0887 3.89675 46.1363C3.96171 46.1838 4.05732 46.2363 4.18603 46.2924L5.1973 46.7192C5.53317 46.8643 5.78323 47.0351 5.94748 47.2302C6.11296 47.4253 6.19509 47.6594 6.19509 47.9326C6.19509 48.2253 6.12522 48.4704 5.98426 48.6655C5.84329 48.8619 5.63981 49.0107 5.37259 49.1082C5.10414 49.2082 4.78054 49.257 4.40177 49.257Z" fill="#193369"/>
<path d="M10.011 48.3229C10.3163 48.3229 10.5602 48.2034 10.7441 47.9631C10.9267 47.7229 11.0186 47.3851 11.0186 46.9497C11.0186 46.5399 10.9267 46.2168 10.7441 45.9777C10.5602 45.7399 10.3163 45.6216 10.011 45.6216C9.7144 45.6216 9.47414 45.7399 9.2915 45.9777C9.10886 46.2155 9.01693 46.5412 9.01693 46.9558C9.01693 47.3875 9.10763 47.7229 9.2915 47.9631C9.47414 48.2034 9.71317 48.3229 10.011 48.3229ZM10.011 49.257C9.59427 49.257 9.23021 49.1692 8.92009 48.9948C8.60874 48.8204 8.36849 48.5619 8.19565 48.2204C8.02282 47.879 7.93701 47.4582 7.93701 46.9558C7.93701 46.4424 8.02282 46.018 8.19565 45.6814C8.36849 45.346 8.60997 45.0973 8.92009 44.9338C9.23144 44.7692 9.59427 44.6875 10.011 44.6875C10.4315 44.6875 10.798 44.7741 11.1118 44.9448C11.4244 45.1168 11.6671 45.3704 11.8387 45.7058C12.0115 46.0424 12.0973 46.4595 12.0973 46.9558C12.0973 47.4655 12.0103 47.8912 11.8387 48.2326C11.6671 48.5741 11.4244 48.8302 11.1118 49.0009C10.798 49.1716 10.4315 49.257 10.011 49.257Z" fill="#193369"/>
<path d="M15.039 44.7861V48.241H16.6975V49.1532H13.9922V44.7861H15.039Z" fill="#193369"/>
<path d="M18.4346 44.7861H19.4814V47.4349C19.4814 47.7447 19.5611 47.9691 19.7204 48.1056C19.8798 48.2422 20.0796 48.3105 20.3198 48.3105C20.5638 48.3105 20.766 48.2422 20.9266 48.1056C21.0872 47.9691 21.1668 47.7447 21.1668 47.4349V44.7861H22.21V47.4349C22.21 47.8032 22.1364 48.1239 21.9906 48.3983C21.8447 48.6715 21.6314 48.8825 21.3495 49.0325C21.0676 49.1825 20.7243 49.2581 20.3186 49.2581C19.9129 49.2581 19.5696 49.1825 19.2889 49.0325C19.0095 48.8837 18.7962 48.6715 18.6515 48.3983C18.5069 48.1239 18.4346 47.8032 18.4346 47.4349V44.7861Z" fill="#193369"/>
<path d="M25.956 49.257C25.6422 49.257 25.3504 49.2046 25.082 49.0985C24.8148 48.9936 24.5966 48.8277 24.4274 48.6034C24.2595 48.379 24.1676 48.0863 24.1504 47.7265H25.1837C25.1837 47.8594 25.218 47.9692 25.2855 48.0558C25.3529 48.1424 25.4448 48.2058 25.5613 48.2473C25.6789 48.2887 25.8076 48.3095 25.9486 48.3095C26.0626 48.3095 26.1693 48.2997 26.2673 48.2802C26.3666 48.2607 26.4463 48.2265 26.5076 48.1753C26.5676 48.1253 26.5983 48.057 26.5983 47.9704C26.5983 47.8643 26.5664 47.7851 26.5027 47.7326C26.4377 47.6814 26.3225 47.6216 26.1545 47.5546L25.1997 47.1412C24.8859 47.007 24.6419 46.8485 24.4666 46.6655C24.2926 46.4838 24.2056 46.2351 24.2056 45.9204C24.2056 45.5521 24.3563 45.2534 24.6591 45.0277C24.9606 44.8009 25.3749 44.6875 25.8996 44.6875C26.434 44.6875 26.8447 44.8131 27.1303 45.0643C27.4159 45.3143 27.5765 45.6716 27.6108 46.1363H26.5836C26.5578 45.9936 26.4941 45.8729 26.3923 45.7753C26.2918 45.6777 26.1276 45.629 25.9008 45.629C25.7378 45.629 25.6054 45.6582 25.5049 45.718C25.4044 45.7777 25.3553 45.8521 25.3553 45.9412C25.3553 46.0241 25.3872 46.0887 25.4509 46.1363C25.5159 46.1838 25.6115 46.2363 25.7402 46.2924L26.7503 46.7192C27.0861 46.8643 27.3362 47.0351 27.5005 47.2302C27.6659 47.4253 27.7481 47.6594 27.7481 47.9326C27.7481 48.2253 27.6782 48.4704 27.5372 48.6655C27.3963 48.8619 27.1928 49.0107 26.9256 49.1082C26.6583 49.2082 26.336 49.257 25.956 49.257Z" fill="#193369"/>
<path d="M30.81 44.7861H29.7632V49.1532H30.81V44.7861Z" fill="#193369"/>
<path d="M0.864258 51.6328H2.36216L3.33421 53.9633H3.25208L4.2229 51.6328H5.6632V55.9999H4.60902V52.8926H4.75367L3.62472 55.5926H2.94809L1.82527 52.8987H1.91108V55.9999H0.864258V51.6328Z" fill="#193369"/>
<path d="M9.01793 54.4609H10.0292L9.53153 52.8633L9.01793 54.4609ZM7.40234 55.9999L8.88064 51.6328H10.2118L11.6092 55.9999H10.506L10.267 55.2316H8.75316L8.51413 55.9999H7.40234Z" fill="#193369"/>
<path d="M12.9136 55.9999L14.463 53.8231L12.9136 51.6328H14.2117L15.1666 53.006L15.9315 51.6328H17.194L15.7549 53.8023L17.4367 55.9999H16.1116L15.0685 54.6328L14.1823 55.9999H12.9136Z" fill="#193369"/>
<path d="M20.2143 51.6328H19.1675V55.9999H20.2143V51.6328Z" fill="#193369"/>
<path d="M22.3916 51.6328H23.8895L24.8616 53.9633H24.7794L25.7502 51.6328H27.1893V55.9999H26.1364V52.8926H26.281L25.1521 55.5926H24.4742L23.3526 52.8987H23.4384V55.9999H22.3916V51.6328Z" fill="#193369"/>
<path d="M30.5453 54.4609H31.5553L31.0576 52.8633L30.5453 54.4609ZM28.9297 55.9999L30.408 51.6328H31.7392L33.1366 55.9999H32.0334L31.7943 55.2316H30.2805L30.0415 55.9999H28.9297Z" fill="#193369"/>
</g>
<defs>
<clipPath id="clip0_10578_35301">
<rect width="32.2712" height="56" fill="white" transform="translate(0.864258)"/>
</clipPath>
</defs>
</svg>
