<svg width="160" height="32" viewBox="0 0 160 32" fill="none" xmlns="http://www.w3.org/2000/svg">
<path d="M8.71289 27.6586V27.0664H12.0365V27.6586H10.5681L10.7192 27.5015V31.2421H10.0242V27.5015L10.1813 27.6586H8.71289Z" fill="white"/>
<path d="M17.7729 29.121H18.5343C18.8244 29.121 19.0419 29.0545 19.1869 28.9156C19.338 28.7826 19.4105 28.6074 19.4105 28.3898C19.4105 28.1662 19.3441 27.991 19.2051 27.858C19.0661 27.7251 18.8667 27.6586 18.5947 27.6586H17.7729V29.121ZM19.3622 31.2421L18.2321 29.3023H18.9694L20.2626 31.2421H19.3622ZM17.084 31.2421V27.0664H18.6008C19.0963 27.0664 19.471 27.1812 19.7308 27.4169C19.9907 27.6526 20.1236 27.9547 20.1236 28.3415C20.1236 28.7161 19.9967 29.0183 19.7308 29.2479C19.471 29.4775 19.0903 29.5924 18.6008 29.5924H17.7789V31.2421H17.084Z" fill="white"/>
<path d="M25.5139 27.0664H26.2088V29.683C26.2088 30.0395 26.2994 30.2994 26.4807 30.4565C26.662 30.6136 26.8977 30.6982 27.1817 30.6982C27.4657 30.6982 27.7014 30.6197 27.8767 30.4565C28.0579 30.2994 28.1486 30.0395 28.1486 29.683V27.0664H28.8375V29.683C28.8375 30.0335 28.771 30.3296 28.6381 30.5774C28.5051 30.8251 28.3118 31.0125 28.064 31.1394C27.8162 31.2663 27.5201 31.3327 27.1757 31.3327C26.8312 31.3327 26.5291 31.2663 26.2813 31.1394C26.0336 31.0125 25.8402 30.8251 25.7072 30.5774C25.5743 30.3296 25.5078 30.0335 25.5078 29.683V27.0664H25.5139Z" fill="white"/>
<path d="M35.8166 31.3263C35.5326 31.3263 35.2667 31.278 35.025 31.1753C34.7833 31.0725 34.5899 30.9215 34.4448 30.716C34.2938 30.5106 34.2152 30.2568 34.2031 29.9425H34.8799C34.8799 30.1117 34.9222 30.2567 35.0068 30.3655C35.0914 30.4743 35.2063 30.5589 35.3452 30.6133C35.4842 30.6677 35.6414 30.6918 35.8045 30.6918C35.9737 30.6918 36.1248 30.6677 36.2517 30.6193C36.3786 30.571 36.4813 30.5045 36.5538 30.4199C36.6264 30.3353 36.6626 30.2386 36.6626 30.1298C36.6626 29.9788 36.6143 29.8579 36.5236 29.7733C36.433 29.6827 36.288 29.6102 36.0946 29.5437L35.2969 29.2355C34.9706 29.1086 34.7168 28.9635 34.5415 28.8004C34.3663 28.6372 34.2817 28.4076 34.2817 28.1115C34.2817 27.7791 34.4146 27.5072 34.6745 27.2957C34.9404 27.0842 35.309 26.9814 35.7803 26.9814C36.2336 26.9814 36.5901 27.0902 36.8379 27.3017C37.0917 27.5132 37.2307 27.8033 37.2669 28.178H36.5901C36.5599 28.0027 36.4813 27.8637 36.3544 27.767C36.2275 27.6643 36.0342 27.6099 35.7864 27.6099C35.5568 27.6099 35.3755 27.6583 35.2425 27.7549C35.1096 27.8516 35.0431 27.9786 35.0431 28.1296C35.0431 28.2565 35.0854 28.3593 35.17 28.4318C35.2546 28.5043 35.3815 28.5768 35.5568 28.6372L36.4572 28.9756C36.7654 29.0905 37.001 29.2355 37.1702 29.4228C37.3394 29.6041 37.424 29.8337 37.424 30.1117C37.424 30.3534 37.3636 30.5649 37.2367 30.7523C37.1098 30.9336 36.9285 31.0786 36.6928 31.1813C36.4511 31.278 36.161 31.3263 35.8166 31.3263Z" fill="white"/>
<path d="M42.2832 27.6586V27.0664H45.6008V27.6586H44.1324L44.2834 27.5015V31.2421H43.5945V27.5015L43.7516 27.6586H42.2832Z" fill="white"/>
<path d="M50.6406 31.2421V27.0664H53.2935V27.6586H51.3295V28.8491H53.1726V29.4473H51.3295V30.6378H53.2935V31.2421H50.6406Z" fill="white"/>
<path d="M59.4938 27.6888V30.6257H60.1162C60.4002 30.6257 60.6419 30.5592 60.8474 30.4323C61.0529 30.3054 61.21 30.1302 61.3187 29.9066C61.4275 29.683 61.4879 29.4352 61.4879 29.1573C61.4879 28.8733 61.4336 28.6194 61.3187 28.4019C61.21 28.1844 61.0468 28.0091 60.8474 27.8822C60.6419 27.7553 60.4002 27.6949 60.1162 27.6949H59.4938V27.6888ZM58.7988 27.0664H60.1162C60.5392 27.0664 60.9078 27.151 61.2281 27.3202C61.5423 27.4894 61.7901 27.7311 61.9653 28.0454C62.1406 28.3596 62.2312 28.7282 62.2312 29.1573C62.2312 29.5742 62.1406 29.9429 61.9653 30.2571C61.7901 30.5713 61.5423 30.8131 61.2281 30.9823C60.9139 31.1575 60.5392 31.2421 60.1162 31.2421H58.7988V27.0664Z" fill="white"/>
<path d="M75.1018 31.3271C74.7392 31.3271 74.4189 31.2365 74.147 31.0612C73.875 30.886 73.6696 30.6322 73.5185 30.3059C73.3674 29.9795 73.2949 29.5928 73.2949 29.1396C73.2949 28.6682 73.3735 28.2754 73.5306 27.9552C73.6877 27.6349 73.8992 27.3932 74.1712 27.23C74.4431 27.0668 74.7513 26.9883 75.1018 26.9883C75.5792 26.9883 75.9538 27.1031 76.2258 27.3388C76.4977 27.5745 76.679 27.8706 76.7636 28.2452L76.0203 28.3842C75.9478 28.1546 75.833 27.9673 75.6759 27.8283C75.5187 27.6893 75.3254 27.6168 75.1018 27.6168C74.9084 27.6168 74.7271 27.6711 74.57 27.786C74.4129 27.9008 74.2799 28.07 74.1893 28.2936C74.0926 28.5232 74.0443 28.8072 74.0443 29.1456C74.0443 29.4599 74.0866 29.7318 74.1651 29.9675C74.2437 30.2031 74.3645 30.3844 74.5216 30.5113C74.6788 30.6382 74.8721 30.7047 75.1018 30.7047C75.3918 30.7047 75.6154 30.6261 75.7786 30.4751C75.9417 30.318 76.0203 30.1246 76.0203 29.8829H76.7636C76.7636 30.1911 76.6971 30.4509 76.5642 30.6684C76.4312 30.886 76.2379 31.0492 75.9901 31.17C75.7363 31.2667 75.4402 31.3271 75.1018 31.3271Z" fill="white"/>
<path d="M83.635 30.6987C83.9916 30.6987 84.2696 30.5657 84.4811 30.2998C84.6865 30.0339 84.7892 29.6472 84.7892 29.1456C84.7892 28.6561 84.6865 28.2754 84.4811 28.0095C84.2756 27.7376 83.9916 27.6047 83.635 27.6047C83.2845 27.6047 83.0066 27.7376 82.7951 28.0095C82.5836 28.2815 82.4808 28.6622 82.4808 29.1517C82.4808 29.6532 82.5836 30.0339 82.7951 30.2998C83.0005 30.5657 83.2845 30.6987 83.635 30.6987ZM83.635 31.3271C83.2725 31.3271 82.9461 31.2486 82.6682 31.0854C82.3902 30.9223 82.1666 30.6805 82.0034 30.3603C81.8463 30.04 81.7617 29.6351 81.7617 29.1577C81.7617 28.6682 81.8403 28.2634 82.0034 27.9431C82.1666 27.6228 82.3841 27.3811 82.6682 27.224C82.9522 27.0668 83.2725 26.9883 83.635 26.9883C83.9976 26.9883 84.3239 27.0668 84.608 27.23C84.892 27.3932 85.1095 27.6349 85.2666 27.9552C85.4238 28.2754 85.5084 28.6803 85.5084 29.1577C85.5084 29.6472 85.4298 30.0521 85.2666 30.3723C85.1095 30.6926 84.8859 30.9343 84.608 31.0975C84.3239 31.2486 83.9976 31.3271 83.635 31.3271Z" fill="white"/>
<path d="M90.8262 27.0664H91.8172L93.0681 29.7072H93.0016L94.2525 27.0664H95.2134V31.2421H94.5124V27.8399H94.6272L93.2615 30.7647H92.8083L91.4486 27.858H91.5151V31.2421H90.8262V27.0664Z" fill="white"/>
<path d="M101.521 29.0908H102.264C102.512 29.0908 102.706 29.0243 102.832 28.8914C102.959 28.7584 103.026 28.5892 103.026 28.3838C103.026 28.1662 102.959 27.997 102.832 27.8641C102.706 27.7311 102.512 27.6647 102.264 27.6647H101.521V29.0908ZM100.826 31.2421V27.0664H102.264C102.73 27.0664 103.092 27.1812 103.346 27.4169C103.606 27.6465 103.733 27.9729 103.733 28.3898C103.733 28.8007 103.606 29.121 103.346 29.3567C103.086 29.5863 102.73 29.7011 102.264 29.7011H101.521V31.2421H100.826Z" fill="white"/>
<path d="M109.65 27.0664V30.6378H111.409V31.2421H108.955V27.0664H109.65Z" fill="white"/>
<path d="M117.197 27.0664H116.508V31.2421H117.197V27.0664Z" fill="white"/>
<path d="M123.578 29.7676H124.817L124.201 27.8943L123.578 29.7676ZM122.357 31.2421L123.784 27.0664H124.648L126.026 31.2421H125.294L124.986 30.2934H123.403L123.089 31.2421H122.357Z" fill="white"/>
<path d="M131.168 27.0664H131.941L133.899 30.1725H133.845V27.0664H134.54V31.2421H133.821L131.754 27.9668H131.863V31.2421H131.168V27.0664Z" fill="white"/>
<path d="M141.666 31.3271C141.298 31.3271 140.983 31.2365 140.711 31.0612C140.44 30.886 140.234 30.6322 140.083 30.3059C139.932 29.9795 139.859 29.5928 139.859 29.1396C139.859 28.6682 139.938 28.2754 140.095 27.9552C140.252 27.6349 140.464 27.3932 140.736 27.23C141.008 27.0668 141.316 26.9883 141.666 26.9883C142.144 26.9883 142.518 27.1031 142.79 27.3388C143.062 27.5745 143.243 27.8706 143.328 28.2452L142.585 28.3842C142.512 28.1546 142.397 27.9673 142.234 27.8283C142.077 27.6893 141.884 27.6168 141.66 27.6168C141.467 27.6168 141.286 27.6711 141.128 27.786C140.971 27.9008 140.838 28.07 140.748 28.2936C140.651 28.5232 140.603 28.8072 140.603 29.1456C140.603 29.4599 140.645 29.7318 140.724 29.9675C140.802 30.2031 140.923 30.3844 141.08 30.5113C141.237 30.6382 141.431 30.7047 141.66 30.7047C141.95 30.7047 142.174 30.6261 142.337 30.4751C142.5 30.318 142.579 30.1246 142.579 29.8829H143.322C143.322 30.1911 143.256 30.4509 143.123 30.6684C142.99 30.886 142.796 31.0492 142.549 31.17C142.301 31.2667 142.011 31.3271 141.666 31.3271Z" fill="white"/>
<path d="M148.627 31.2421V27.0664H151.28V27.6586H149.322V28.8491H151.159V29.4473H149.322V30.6378H151.28V31.2421H148.627Z" fill="white"/>
<path d="M31.7559 0H27.6406V17.2648H31.7559V0Z" fill="white"/>
<path d="M45.4079 7.2393L48.2783 3.75249L40.0176 3.78877V0.00585938H53.4571V3.43826L51.7893 5.48079L45.4079 7.2393ZM40.0176 17.2646V13.7778L41.3833 12.116L47.813 10.3454L45.2327 13.5059L53.4571 13.4817V17.2646H40.0176Z" fill="white"/>
<path d="M59.627 0H64.4613L67.7789 5.34199H67.1142L70.6493 0H75.4716L69.4287 8.96777V17.2648H65.3376V8.96777L59.627 0Z" fill="white"/>
<path d="M100.494 3.56535V0H114.707V3.56535H108.749L109.673 2.64078V17.2648H105.558V2.64078L106.489 3.56535H100.494Z" fill="white"/>
<path d="M121.18 17.2648V0H132.716V3.56535H125.295V6.88296H132.256V10.4604H125.295V13.6632H132.716V17.2648H121.18Z" fill="white"/>
<path d="M0 17.2648H5.8919L9.71106 12.5694H9.39078L13.2099 17.2648H18.8662V0H14.7267V13.4154H15.2948L10.8532 7.25762H8.19427L3.7829 13.3912H4.11527V0H0V17.2648Z" fill="white"/>
<path d="M141.127 0H147.019L150.838 4.6954H150.518L154.337 0H159.999V17.2648H155.854V3.84937H156.422L151.98 10.0072H149.321L144.91 3.87355H145.242V17.2648H141.127V0Z" fill="white"/>
<path d="M88.7174 7.2393L85.847 3.75249L94.1077 3.78877V0.00585938H80.6621V3.43826L82.33 5.48079L88.7174 7.2393ZM94.1077 17.2646V13.7778L92.742 12.116L86.3123 10.3454L88.8926 13.5059L80.6621 13.4817V17.2646H94.1077Z" fill="white"/>
<path d="M13.6816 23.3924C45.9874 -0.229545 89.817 0.169291 121.585 23.3924H119.512C88.7293 1.76464 47.0388 1.39601 15.7604 23.3924H13.6816Z" fill="white"/>
</svg>
