<svg width="160" height="34" viewBox="0 0 160 34" fill="none" xmlns="http://www.w3.org/2000/svg">
<path d="M31.757 0H27.6439V17.2609H31.757V0Z" fill="white"/>
<path d="M45.4049 7.23394L48.2785 3.74898L40.0246 3.77955V0H53.467V3.43216L51.7968 5.48034L45.4049 7.23394ZM40.0219 17.2636V13.7759L41.3864 12.114L47.82 10.3493L45.2326 13.5063L53.4615 13.4841V17.2636H40.0219Z" fill="#FFB300"/>
<path d="M59.6283 0H64.4639L67.7821 5.33861H67.1151L70.6501 0H75.4746L69.4301 8.96808V17.2636H65.3365V8.96808L59.6283 0Z" fill="white"/>
<path d="M100.497 3.56278V0H114.709V3.56278H108.753L109.676 2.63735V17.2636H105.56V2.63735L106.488 3.56278H100.497Z" fill="white"/>
<path d="M121.184 17.2636V0H132.723V3.56278H125.294V6.88377H132.256V10.4577H125.294V13.6592H132.723V17.2636H121.184Z" fill="white"/>
<path d="M0 17.2636H5.88887L9.71011 12.5725H9.39051L13.2062 17.2636H18.8699V0H14.7236V13.4118H15.2961L10.8551 7.2534H8.19273L3.78233 13.384H4.11582V0H0V17.2636Z" fill="white"/>
<path d="M141.127 0H147.024L150.84 4.69109H150.523L154.339 0H160V17.2636H155.862V3.8518H156.423L151.988 10.0075H149.32L144.912 3.87681H145.246V17.2636H141.127V0Z" fill="white"/>
<path d="M88.722 7.23394L85.8512 3.74898L94.1078 3.77955V0H80.6682V3.43216L82.3329 5.48034L88.722 7.23394ZM94.105 17.2636V13.7759L92.7377 12.114L86.3125 10.3493L88.8887 13.5063L80.6654 13.4841V17.2636H94.105Z" fill="#FFB300"/>
<path d="M12.528 23.4277C12.6669 23.3082 12.8031 23.1721 12.9476 23.0581C13.0838 22.9386 13.245 22.8275 13.3923 22.7219C13.8814 22.3411 14.3816 21.9882 14.8819 21.6241C15.3821 21.2684 15.899 20.9182 16.4103 20.582C17.1301 20.1012 17.8527 19.6343 18.5947 19.1813C23.2636 16.305 28.2298 13.8872 33.36 11.9279C41.1025 8.97376 49.2563 7.06176 57.5157 6.29473C59.1137 6.14466 60.7228 6.03905 62.3319 5.98069C64.1994 5.91677 66.0642 5.91677 67.9289 5.96124C70.0911 6.01404 72.2588 6.14188 74.4125 6.33919C83.0333 7.14513 91.5206 9.0488 99.5854 12.2114C103.043 13.5676 106.408 15.1322 109.651 16.9414C110.977 17.6778 112.289 18.4421 113.561 19.2564C114.423 19.8066 115.279 20.3708 116.115 20.9516C116.377 21.1378 116.643 21.3157 116.905 21.5074C117.058 21.6214 117.219 21.727 117.374 21.8437C117.738 22.1105 118.1 22.3828 118.455 22.6607C118.605 22.7802 118.772 22.8969 118.914 23.0192C119.061 23.1471 119.209 23.2888 119.35 23.4194C119.409 23.475 119.581 23.6334 119.639 23.6806L119.297 23.4889C118.617 23.1248 117.975 22.6774 117.324 22.2661C116.457 21.7158 115.596 21.1711 114.723 20.6348C111.783 18.8645 108.754 17.236 105.641 15.7964C97.2371 11.8973 88.2468 9.32114 79.0731 8.06778C75.7493 7.61479 72.4172 7.32854 69.0712 7.20626L65.7251 7.13401L62.0818 7.20349C53.5917 7.5342 45.1766 9.07381 37.0839 11.6917C34.0603 12.6699 31.0811 13.7871 28.1714 15.0627C24.8365 16.5217 21.5683 18.1586 18.4169 19.9845C17.1385 20.7209 15.8851 21.4741 14.6262 22.255C14.2621 22.4829 13.8981 22.7135 13.534 22.9414C13.3784 23.0387 13.22 23.1443 13.0671 23.236C12.7976 23.3888 12.5169 23.5306 12.2445 23.6806C12.3446 23.5973 12.4363 23.5139 12.528 23.4277Z" fill="white"/>
<path d="M7.83104 32.3621C8.5536 32.3621 9.10386 32.1481 9.48737 31.7173C9.86811 31.2866 10.0599 30.6807 10.0599 29.897C10.0599 29.1133 9.86811 28.5047 9.48737 28.0767C9.10664 27.646 8.5536 27.432 7.83104 27.432H6.53043V32.3621H7.83104ZM7.83104 26.4927C8.8982 26.4927 9.72638 26.7873 10.3211 27.3736C10.9158 27.96 11.2132 28.8021 11.2132 29.897C11.2132 30.9892 10.9158 31.8313 10.3211 32.4204C9.72638 33.0096 8.89542 33.3014 7.83104 33.3014H5.42712V26.4927H7.83104Z" fill="white"/>
<path d="M16.658 26.4927H15.5547V33.3014H16.658V26.4927Z" fill="white"/>
<path d="M24.142 33.4047C23.5028 33.4047 22.9498 33.263 22.4801 32.9823C22.0132 32.7016 21.6492 32.2986 21.3879 31.7817C21.1267 31.2621 20.9961 30.634 20.9961 29.8975C20.9961 29.175 21.1323 28.5524 21.4046 28.03C21.677 27.5075 22.0605 27.1045 22.5607 26.8183C23.0582 26.5321 23.6307 26.3903 24.2782 26.3903C24.9869 26.3903 25.5593 26.5209 25.9957 26.7822C26.432 27.0434 26.7821 27.4492 27.0434 27.9994L26.0207 28.483C25.8901 28.105 25.6761 27.8215 25.3759 27.6326C25.0758 27.4436 24.7145 27.3491 24.2865 27.3491C23.8586 27.3491 23.4861 27.4491 23.1666 27.6492C22.847 27.8493 22.5968 28.1384 22.419 28.5219C22.2411 28.9026 22.1522 29.3639 22.1522 29.9003C22.1522 30.4422 22.23 30.9063 22.3884 31.2871C22.5468 31.6678 22.7858 31.9596 23.1054 32.1597C23.425 32.3598 23.8196 32.4598 24.2865 32.4598C24.5422 32.4598 24.7784 32.4265 24.998 32.3626C25.2175 32.2986 25.4093 32.2014 25.576 32.0735C25.7428 31.9457 25.8706 31.7845 25.9623 31.59C26.054 31.3954 26.1013 31.162 26.1013 30.8924V30.6923H24.1198V29.7947H27.0795V33.3019H26.2541L26.193 31.929L26.3986 32.0319C26.2347 32.4654 25.9595 32.8017 25.5788 33.0434C25.2008 33.2852 24.7201 33.4047 24.142 33.4047Z" fill="white"/>
<path d="M32.6488 26.4927H31.5455V33.3014H32.6488V26.4927Z" fill="white"/>
<path d="M42.4336 26.4927V27.4431H40.1019V33.3014H38.9986V27.4431H36.667V26.4927H42.4336Z" fill="white"/>
<path d="M47.5555 26.4927H46.4521V33.3014H47.5555V26.4927Z" fill="white"/>
<path d="M52.7192 32.7456L52.5247 32.3621H57.2797V33.3014H51.7799V32.4038L56.2153 27.0513L56.4126 27.432H51.8744V26.4927H57.1546V27.3903L52.7192 32.7456Z" fill="white"/>
<path d="M62.5822 26.4927H61.4789V33.3014H62.5822V26.4927Z" fill="white"/>
<path d="M72.8873 26.4927V33.3014H71.5756L68.9437 29.0105L68.2851 27.8044H68.274L68.3157 28.9077V33.3014H67.3041V26.4927H68.6047L71.2254 30.7752L71.8951 32.0036H71.9063L71.8646 30.8892V26.4927H72.8873Z" fill="white"/>
<path d="M80.3571 33.4047C79.7179 33.4047 79.1649 33.263 78.6952 32.9823C78.2283 32.7016 77.8642 32.2986 77.6002 31.7817C77.339 31.2621 77.2084 30.634 77.2084 29.8975C77.2084 29.175 77.3446 28.5524 77.6169 28.03C77.8893 27.5075 78.2728 27.1045 78.773 26.8183C79.2705 26.5321 79.843 26.3903 80.4905 26.3903C81.1992 26.3903 81.7716 26.5209 82.2079 26.7822C82.6443 27.0434 82.9944 27.4492 83.2557 27.9994L82.233 28.483C82.1024 28.105 81.8883 27.8215 81.5882 27.6326C81.2881 27.4436 80.9268 27.3491 80.4988 27.3491C80.0709 27.3491 79.6984 27.4491 79.3789 27.6492C79.0593 27.8493 78.8091 28.1384 78.6313 28.5219C78.4534 28.9026 78.3645 29.3639 78.3645 29.9003C78.3645 30.4422 78.4423 30.9063 78.6007 31.2871C78.7591 31.6678 78.9981 31.9596 79.3177 32.1597C79.6373 32.3598 80.0319 32.4598 80.4988 32.4598C80.7545 32.4598 80.9907 32.4265 81.2103 32.3626C81.4298 32.2986 81.6216 32.2014 81.7883 32.0735C81.9551 31.9457 82.0829 31.7845 82.1746 31.59C82.2663 31.3954 82.3135 31.162 82.3135 30.8924V30.6923H80.3321V29.7947H83.2918V33.3019H82.4664L82.4053 31.929L82.6109 32.0319C82.447 32.4654 82.1718 32.8017 81.7911 33.0434C81.4131 33.2852 80.9351 33.4047 80.3571 33.4047Z" fill="white"/>
<path d="M96.6338 27.3491C96.2086 27.3491 95.8418 27.4491 95.5361 27.6492C95.2304 27.8493 94.9942 28.1384 94.8302 28.5163C94.6662 28.8943 94.5829 29.3556 94.5829 29.8975C94.5829 30.4339 94.6662 30.8924 94.8302 31.2759C94.9942 31.6567 95.2304 31.9485 95.5361 32.1486C95.8418 32.3487 96.2086 32.4487 96.6338 32.4487C97.0674 32.4487 97.437 32.3487 97.7427 32.1486C98.0484 31.9485 98.2846 31.6595 98.4486 31.2759C98.6125 30.8952 98.6959 30.4339 98.6959 29.8975C98.6959 29.3528 98.6125 28.8943 98.4486 28.5163C98.2846 28.1384 98.0484 27.8493 97.7427 27.6492C97.437 27.4491 97.0674 27.3491 96.6338 27.3491ZM96.6338 26.3903C97.2952 26.3903 97.865 26.5321 98.3458 26.8127C98.8265 27.0934 99.1989 27.4964 99.4602 28.0189C99.7214 28.5413 99.852 29.1666 99.852 29.8975C99.852 30.6256 99.7214 31.2537 99.4602 31.7762C99.1989 32.2986 98.8265 32.7016 98.3458 32.9823C97.865 33.2658 97.2925 33.4047 96.6338 33.4047C95.9807 33.4047 95.4138 33.263 94.933 32.9823C94.4523 32.7016 94.0799 32.2986 93.8186 31.7762C93.5574 31.2537 93.4268 30.6284 93.4268 29.8975C93.4268 29.1694 93.5574 28.5413 93.8186 28.0189C94.0799 27.4964 94.4523 27.0934 94.933 26.8127C95.4138 26.5321 95.9807 26.3903 96.6338 26.3903Z" fill="white"/>
<path d="M107.534 29.8887L109.752 33.3042H108.482L106.584 30.3222L107.534 29.8887ZM106.884 29.6608C107.331 29.6608 107.662 29.5691 107.879 29.3885C108.095 29.2051 108.204 28.9271 108.204 28.5464C108.204 28.174 108.095 27.8961 107.879 27.7099C107.662 27.5237 107.331 27.432 106.884 27.432H105.286V29.6608H106.884ZM106.967 26.4927C107.695 26.4927 108.276 26.6761 108.707 27.0401C109.138 27.4042 109.352 27.8961 109.352 28.5158C109.352 29.155 109.138 29.6497 108.707 29.9971C108.276 30.3445 107.698 30.5168 106.967 30.5168L106.864 30.5779H105.286V33.3014H104.194V26.4927H106.967Z" fill="white"/>
<path d="M116.521 33.4047C115.882 33.4047 115.329 33.263 114.86 32.9823C114.393 32.7016 114.029 32.2986 113.765 31.7817C113.503 31.2621 113.373 30.634 113.373 29.8975C113.373 29.175 113.509 28.5524 113.781 28.03C114.054 27.5075 114.437 27.1045 114.937 26.8183C115.435 26.5321 116.007 26.3903 116.655 26.3903C117.363 26.3903 117.936 26.5209 118.372 26.7822C118.809 27.0434 119.159 27.4492 119.42 27.9994L118.4 28.483C118.269 28.105 118.055 27.8215 117.755 27.6326C117.455 27.4436 117.094 27.3491 116.666 27.3491C116.241 27.3491 115.866 27.4491 115.546 27.6492C115.226 27.8493 114.976 28.1384 114.798 28.5219C114.62 28.9026 114.532 29.3639 114.532 29.9003C114.532 30.4422 114.609 30.9063 114.768 31.2871C114.926 31.6678 115.165 31.9596 115.485 32.1597C115.804 32.3598 116.199 32.4598 116.666 32.4598C116.922 32.4598 117.158 32.4265 117.377 32.3626C117.597 32.2986 117.789 32.2014 117.955 32.0735C118.122 31.9457 118.25 31.7845 118.342 31.59C118.433 31.3954 118.481 31.162 118.481 30.8924V30.6923H116.499V29.7947H119.459V33.3019H118.633L118.572 31.929L118.778 32.0319C118.614 32.4654 118.339 32.8017 117.958 33.0434C117.58 33.2852 117.099 33.4047 116.521 33.4047Z" fill="white"/>
<path d="M124.492 31.5172V30.6196H128.174V31.5172H124.492ZM123.119 33.3014L125.687 26.4927H127.007L129.575 33.3014H128.41L126.657 28.4325L126.348 27.4515H126.318L126.029 28.4102L124.253 33.3014H123.119Z" fill="white"/>
<path d="M139.062 26.4927V33.3014H137.751L135.122 29.0105L134.46 27.8044H134.452L134.491 28.9077V33.3014H133.482V26.4927H134.78L137.401 30.7752L138.07 32.0036H138.081L138.04 30.8892V26.4927H139.062Z" fill="white"/>
<path d="M144.871 26.4927H143.768V33.3014H144.871V26.4927Z" fill="white"/>
<path d="M155.234 31.498C155.098 31.9121 154.89 32.2595 154.615 32.5458C154.339 32.832 154.017 33.046 153.645 33.1905C153.272 33.335 152.864 33.4073 152.416 33.4073C151.763 33.4073 151.196 33.2655 150.715 32.9849C150.235 32.7042 149.862 32.3012 149.601 31.7787C149.34 31.2563 149.209 30.631 149.209 29.9001C149.209 29.172 149.34 28.5439 149.601 28.0214C149.862 27.499 150.235 27.096 150.715 26.8153C151.196 26.5318 151.76 26.3929 152.408 26.3929C152.855 26.3929 153.258 26.454 153.62 26.5791C153.981 26.7041 154.289 26.8876 154.542 27.1349C154.798 27.3822 154.992 27.6935 155.131 28.0631L154.089 28.5272C153.953 28.1215 153.753 27.8241 153.492 27.6351C153.231 27.4462 152.889 27.3517 152.469 27.3517C152.049 27.3517 151.683 27.4517 151.366 27.6518C151.049 27.8519 150.804 28.1409 150.629 28.5189C150.454 28.8968 150.365 29.3582 150.365 29.9001C150.365 30.4364 150.449 30.895 150.613 31.2785C150.777 31.6592 151.016 31.951 151.324 32.1511C151.633 32.3512 152.005 32.4513 152.439 32.4513C152.858 32.4513 153.219 32.3429 153.528 32.1261C153.834 31.9094 154.053 31.5842 154.184 31.1507L155.234 31.498Z" fill="white"/>
</svg>
