<svg width="123" height="111" viewBox="0 0 123 111" fill="none" xmlns="http://www.w3.org/2000/svg">
<path d="M48.2102 13.2428L60.1403 1.31276C60.897 0.563228 62.1078 0.563228 62.8573 1.31276L74.8018 13.25C75.5513 13.9995 75.5513 15.2175 74.8018 15.9671C74.427 16.3418 73.9369 16.5316 73.4397 16.5316H66.5353V30.6069C66.5353 31.6688 65.6777 32.5264 64.6158 32.5264H58.3914C57.3295 32.5264 56.4719 31.6688 56.4719 30.6069V16.5316H49.5604C48.4985 16.5316 47.6409 15.674 47.6409 14.6121C47.6385 14.074 47.8571 13.5911 48.2102 13.2428ZM110.508 21.5789C110.159 21.2258 109.677 21 109.138 21C108.077 21 107.219 21.8648 107.219 22.9266V29.8118L107.022 29.8046C95.9016 29.6076 87.9474 29.4634 87.2195 45.7537C87.157 46.3519 87.3901 46.9789 87.8873 47.4017C88.6969 48.0816 89.9101 47.9807 90.59 47.1711C91.8032 45.7417 92.6944 44.5357 93.444 43.5219C95.5004 40.7304 96.2235 39.7551 101.194 39.7959C102.991 39.8103 104.074 39.8295 105.158 39.8439C105.792 39.8512 106.431 39.8632 107.221 39.8704V46.8107C107.221 47.3008 107.411 47.7909 107.786 48.1657C108.535 48.9152 109.753 48.9152 110.503 48.1657L122.44 36.2284C123.19 35.4717 123.19 34.2609 122.44 33.5114L110.508 21.5789ZM0.562148 33.509C-0.187383 34.2585 -0.187383 35.4693 0.562148 36.226L12.5066 48.1633C13.2561 48.9128 14.4741 48.9128 15.2237 48.1633C15.5984 47.7885 15.7882 47.2984 15.7882 46.8083V39.868C16.5786 39.8608 17.2104 39.8488 17.8446 39.8415C18.9353 39.8271 20.0163 39.8079 21.8085 39.7935C26.7861 39.7527 27.502 40.7256 29.5656 43.5195C30.3152 44.5333 31.2064 45.7393 32.4196 47.1687C33.0995 47.9783 34.3127 48.0816 35.1175 47.3993C35.622 46.9765 35.8454 46.3495 35.7925 45.7513C35.0646 29.4634 27.1032 29.6052 15.99 29.8022L15.793 29.8094V22.9242C15.793 21.8624 14.9282 20.9976 13.8663 20.9976C13.3354 20.9976 12.8525 21.2234 12.497 21.5765L0.562148 33.509ZM61.5024 64.5833L95.9592 54.4238L62.9871 41.9412C61.9925 41.5664 61.0123 41.5664 60.0178 41.9412L27.0384 54.4238L61.5024 64.5833ZM98.842 57.5492C98.7531 57.5901 98.6571 57.6237 98.5634 57.6525L63.4243 68.0162V110.249L95.9208 100.669C97.7321 100.131 98.9309 98.5308 98.9309 96.6378V58.4477C98.9309 58.133 98.8949 57.8351 98.842 57.5492ZM59.5829 68.0138L24.4438 57.6501C24.3478 57.6237 24.2541 57.5877 24.1652 57.5468C24.1027 57.8327 24.0763 58.133 24.0763 58.4453V96.6354C24.0763 98.5284 25.2751 100.128 27.0864 100.666L59.5829 110.247V68.0138Z" fill="#B5C0CB"/>
</svg>
