<svg width="28" height="29" viewBox="0 0 28 29" fill="none" xmlns="http://www.w3.org/2000/svg">
<circle cx="14" cy="14.5" r="13.5" fill="#FFF5F7" stroke="#D53248"/>
<path d="M24.7416 14.8074C24.2816 14.7007 23.8783 14.5307 23.535 14.324C24.055 14.0274 24.495 13.6507 24.6383 13.1874C24.865 12.4607 24.5883 11.644 23.965 11.2074C23.4416 10.8407 22.8083 10.8407 22.3116 11.2174C21.7316 11.654 21.4916 12.274 21.6383 12.9574C21.7283 13.3807 21.9583 13.7907 22.285 14.154C22.0016 14.2574 21.7149 14.344 21.4483 14.414V14.3907C21.4483 11.4774 18.8683 8.53735 13.0949 8.53735C11.4016 8.53735 9.91489 8.79069 8.65822 9.28736C8.65155 9.28069 8.64488 9.27069 8.63822 9.26402C8.22488 8.75069 7.75488 8.17068 7.73488 7.81402C7.72488 7.66735 7.61821 7.54068 7.47488 7.50735C7.33154 7.47735 7.18154 7.54068 7.10821 7.67068C7.06154 7.75401 6.27487 9.20069 6.51821 10.5807C6.08154 10.9707 5.71487 11.404 5.43487 11.884C5.0882 12.474 4.4182 12.8407 3.68486 12.8407H3.33152C3.23486 12.8407 3.14152 12.884 3.07819 12.9607C3.01486 13.034 2.98819 13.134 3.00486 13.2307L3.42486 15.6641C3.45153 15.8241 3.59153 15.9407 3.75153 15.9407C4.59486 15.9407 4.85153 16.1574 5.2782 16.5174C5.66154 16.8407 6.1782 17.2774 7.26821 17.6707C7.33488 17.9941 7.44821 18.3474 7.55821 18.6907C7.70821 19.1541 7.86488 19.6341 7.86488 19.9374C7.86488 20.6074 7.53488 21.8441 7.53155 21.8574C7.50488 21.9574 7.52488 22.0641 7.58821 22.1474C7.65155 22.2274 7.74821 22.2774 7.85155 22.2774H9.84156C10.0249 22.2774 10.1749 22.1274 10.1749 21.9441V19.5607C10.1749 19.3107 10.2316 19.0841 10.3616 18.8341C11.2116 19.0041 12.1282 19.0874 13.0949 19.0874C14.2782 19.0874 15.3749 18.9607 16.3649 18.7107C16.4483 18.9207 16.5116 19.1674 16.5116 19.4941V21.9441C16.5116 22.1274 16.6583 22.2774 16.8449 22.2774H18.9649C19.1483 22.2774 19.2983 22.1274 19.2983 21.9441C19.2983 20.1807 19.9016 19.1041 20.4883 18.0607C20.9816 17.1907 21.4449 16.3641 21.4483 15.2641C21.4549 15.2174 21.4549 15.1607 21.4583 15.1007C21.7716 15.0241 22.2983 14.8807 22.8416 14.6574C23.3316 15.0207 23.935 15.3041 24.5916 15.4574C24.6183 15.4607 24.6416 15.4641 24.6683 15.4641C24.8183 15.4641 24.955 15.3607 24.9916 15.2041C25.0316 15.0274 24.925 14.8474 24.7416 14.8074ZM7.04821 13.4507C6.98488 13.514 6.90154 13.5507 6.81154 13.5507C6.72487 13.5507 6.63821 13.514 6.57487 13.4507C6.51487 13.3907 6.47821 13.304 6.47821 13.2174C6.47821 13.1274 6.51487 13.044 6.57487 12.9807C6.70154 12.8574 6.92488 12.8574 7.04821 12.9807C7.11154 13.044 7.14488 13.1274 7.14488 13.2174C7.14154 13.304 7.11154 13.3907 7.04821 13.4507ZM22.295 12.8174C22.2016 12.3907 22.345 12.0307 22.7183 11.7474C22.865 11.6374 23.0083 11.6007 23.135 11.6007C23.3383 11.6007 23.5016 11.694 23.585 11.754C23.905 11.9774 24.1716 12.4574 24.005 12.9874C23.905 13.3174 23.4783 13.624 22.9516 13.8774C22.5916 13.5374 22.365 13.1607 22.295 12.8174Z" fill="#E5ABB3"/>
</svg>
