<svg width="194" height="194" viewBox="0 0 194 194" fill="none" xmlns="http://www.w3.org/2000/svg">
<rect x="1" y="1" width="192" height="192" rx="12" fill="#FFF7F9" stroke="#FF234B" stroke-linecap="round" stroke-dasharray="10 10"/>
<path d="M88.3775 108.25C85.976 108.25 83.84 106.712 83.0645 104.423L83.012 104.251C82.829 103.645 82.7525 103.135 82.7525 102.625V92.3978L79.1135 104.545C78.6455 106.331 79.712 108.184 81.5015 108.677L104.696 114.889C104.986 114.964 105.275 115 105.56 115C107.054 115 108.419 114.008 108.802 112.547L110.153 108.25H88.3775Z" fill="#FF234B"/>
<path d="M92.5027 92.5C94.1572 92.5 95.5027 91.1545 95.5027 89.5C95.5027 87.8455 94.1572 86.5 92.5027 86.5C90.8482 86.5 89.5027 87.8455 89.5027 89.5C89.5027 91.1545 90.8482 92.5 92.5027 92.5Z" fill="#FF234B"/>
<path d="M111.249 82H88.7485C86.6815 82 84.9985 83.683 84.9985 85.75V102.25C84.9985 104.317 86.6815 106 88.7485 106H111.249C113.316 106 114.999 104.317 114.999 102.25V85.75C114.999 83.683 113.316 82 111.249 82ZM88.7485 85H111.249C111.663 85 111.999 85.336 111.999 85.75V96.3985L107.26 90.8695C106.758 90.28 106.03 89.965 105.249 89.947C104.472 89.9515 103.743 90.2965 103.245 90.8935L97.6735 97.5805L95.8585 95.77C94.8325 94.744 93.163 94.744 92.1385 95.77L87.9985 99.9085V85.75C87.9985 85.336 88.3345 85 88.7485 85Z" fill="#FF234B"/>
</svg>
