<?xml version="1.0" standalone="no"?>
<!DOCTYPE svg PUBLIC "-//W3C//DTD SVG 20010904//EN"
 "http://www.w3.org/TR/2001/REC-SVG-20010904/DTD/svg10.dtd">
<svg version="1.0" xmlns="http://www.w3.org/2000/svg"
 width="2162.000000pt" height="2162.000000pt" viewBox="0 0 2162.000000 2162.000000"
 preserveAspectRatio="xMidYMid meet">
<metadata>
Created by potrace 1.14, written by Peter Selinger 2001-2017
</metadata>
<g transform="translate(0.000000,2162.000000) scale(0.100000,-0.100000)"
fill="#000000" stroke="none">
<path d="M10556 21611 c-3 -4 -40 -11 -83 -14 -81 -7 -165 -18 -268 -37 -33
-5 -76 -13 -95 -16 -19 -3 -38 -8 -41 -10 -3 -2 -21 -6 -40 -9 -19 -3 -45 -10
-59 -15 -14 -5 -34 -11 -45 -13 -29 -5 -78 -18 -95 -24 -8 -3 -21 -8 -27 -10
-7 -1 -19 -5 -25 -6 -7 -2 -20 -7 -28 -10 -8 -3 -44 -15 -80 -28 -74 -25 -201
-74 -227 -88 -35 -18 -113 -51 -122 -51 -5 0 -11 -3 -13 -7 -1 -5 -43 -28 -93
-53 -49 -25 -92 -47 -95 -50 -3 -3 -25 -16 -50 -29 -64 -34 -290 -186 -322
-216 -15 -14 -30 -25 -33 -25 -4 0 -12 -6 -19 -12 -7 -7 -30 -26 -51 -43 -83
-65 -216 -187 -289 -263 -23 -24 -57 -61 -76 -81 -63 -66 -145 -162 -154 -179
-5 -9 -18 -25 -29 -34 -11 -10 -16 -18 -12 -18 5 0 2 -6 -7 -12 -17 -15 -117
-155 -168 -238 -19 -30 -38 -57 -42 -58 -5 -2 -6 -8 -2 -13 3 -5 0 -9 -6 -9
-6 0 -8 -4 -5 -10 3 -5 1 -10 -4 -10 -6 0 -11 -5 -11 -11 0 -5 -11 -26 -25
-46 -13 -20 -22 -40 -19 -45 3 -4 1 -8 -4 -8 -8 0 -36 -50 -32 -59 1 -2 -2 -7
-7 -10 -17 -12 -144 -300 -155 -351 -2 -8 -6 -17 -9 -20 -6 -4 -62 -171 -75
-220 -2 -8 -17 -65 -33 -126 -16 -61 -32 -128 -35 -149 -4 -20 -8 -40 -10 -44
-2 -3 -7 -31 -11 -61 -4 -30 -9 -58 -11 -61 -14 -23 -16 -523 -17 -3713 0
-2919 2 -3571 13 -3574 7 -3 10 0 6 7 -4 6 -3 11 1 11 15 0 368 353 365 364
-2 6 0 8 3 4 4 -4 40 25 80 65 40 40 222 218 405 397 182 179 460 452 618 608
157 155 287 282 289 282 1 0 13 11 27 25 14 14 23 25 20 25 -2 0 11 14 31 31
20 18 114 109 210 203 95 94 214 210 263 259 49 48 87 87 85 87 -3 0 9 11 25
24 16 14 121 116 235 228 603 595 929 913 938 916 5 2 7 8 3 13 -3 5 -1 9 4 9
5 0 114 104 242 230 128 127 234 230 234 230 1 0 157 153 346 340 190 187 346
340 348 340 8 0 69 70 64 75 -3 3 0 5 6 5 6 0 111 99 233 220 122 121 226 220
229 220 4 0 13 11 20 25 7 14 16 25 20 25 11 0 275 263 273 272 -2 4 1 7 5 5
5 -1 83 71 173 160 90 89 192 189 227 222 34 33 62 65 62 71 0 5 3 9 8 8 6 -2
161 148 620 600 l125 124 -7 211 c-6 216 -10 275 -20 337 -3 19 -8 51 -10 70
-4 34 -21 135 -32 195 -3 17 -12 57 -21 90 -8 33 -16 67 -18 75 -9 47 -69 237
-77 248 -6 6 -8 12 -5 12 6 0 -58 165 -94 245 -13 28 -23 52 -24 55 -3 27
-191 355 -257 450 -42 60 -169 227 -190 251 -91 103 -133 153 -136 160 -2 5
-10 9 -18 9 -8 0 -14 4 -14 9 0 4 -13 22 -30 39 -16 18 -30 30 -30 28 0 -2
-33 28 -74 68 -41 39 -90 85 -111 101 -20 17 -42 35 -48 40 -7 6 -46 35 -87
65 -41 30 -84 63 -94 72 -11 10 -26 18 -33 18 -7 0 -13 5 -13 11 0 5 -4 8 -9
5 -5 -3 -11 1 -15 9 -3 8 -12 15 -20 15 -8 0 -16 4 -18 8 -4 10 -175 112 -187
112 -5 0 -11 4 -13 8 -6 16 -397 202 -424 202 -3 0 -20 6 -37 14 -49 23 -256
89 -282 91 -5 0 -15 4 -21 7 -6 4 -30 10 -52 14 -23 4 -42 10 -42 14 0 5 -8 7
-17 6 -10 -2 -40 3 -68 10 -62 16 -99 23 -149 30 -22 3 -47 9 -57 14 -9 5 -18
7 -21 5 -2 -2 -33 0 -68 5 -117 17 -154 21 -197 22 -24 0 -43 4 -43 9 0 12
-507 12 -514 0z"/>
<path d="M16745 18828 c-38 -4 -105 -9 -149 -13 -43 -3 -81 -7 -85 -9 -3 -2
-29 -6 -56 -9 -28 -3 -58 -9 -67 -12 -9 -4 -31 -8 -50 -9 -18 -2 -40 -5 -48
-8 -13 -5 -100 -25 -140 -32 -8 -2 -22 -5 -30 -8 -25 -9 -223 -70 -234 -72 -6
-2 -28 -10 -50 -19 -21 -9 -42 -17 -45 -17 -4 0 -26 -9 -49 -20 -22 -11 -45
-20 -51 -20 -5 0 -35 -13 -66 -30 -31 -16 -63 -30 -70 -30 -7 0 -15 -3 -17 -7
-1 -5 -34 -24 -73 -43 -38 -19 -72 -38 -75 -41 -3 -3 -20 -12 -37 -20 -18 -8
-33 -17 -33 -21 0 -5 -9 -8 -21 -8 -11 0 -17 -4 -14 -10 3 -5 1 -10 -5 -10 -6
0 -27 -11 -47 -25 -20 -13 -41 -21 -47 -18 -6 3 -8 3 -4 -2 5 -5 -22 -29 -60
-53 -37 -25 -72 -50 -78 -56 -23 -22 -54 -46 -59 -46 -4 0 -15 -9 -64 -50 -64
-53 -170 -151 -200 -182 l-36 -38 0 -3362 0 -3363 1083 -3 1083 -2 39 40 c21
22 44 40 50 40 6 0 8 5 5 10 -3 6 -2 10 3 10 8 0 104 89 300 278 36 34 67 62
69 62 2 0 35 32 73 70 38 39 75 70 81 70 5 0 8 4 5 9 -4 5 -2 11 3 13 9 3 169
151 306 283 28 28 70 67 93 87 22 20 38 39 34 42 -3 3 0 6 7 6 6 0 35 24 65
53 29 28 92 88 138 132 248 232 336 316 394 373 35 34 69 62 76 62 6 0 9 3 6
6 -4 3 12 22 35 42 23 20 68 63 99 95 32 31 60 57 62 57 1 0 41 37 89 83 47
45 140 134 207 197 67 63 132 126 144 139 11 13 45 49 74 80 29 31 80 90 114
131 33 41 68 84 77 96 10 11 59 83 109 160 51 76 96 144 100 149 4 6 8 17 10
25 2 8 9 18 15 22 7 4 8 8 3 8 -5 0 -2 8 6 18 21 23 114 211 140 281 12 31 28
66 36 79 8 12 11 22 8 22 -4 0 0 13 9 30 8 16 14 31 13 32 -1 2 7 30 19 63 22
61 65 200 69 221 1 7 10 45 19 85 21 91 22 97 29 145 4 22 8 46 11 54 2 8 6
40 10 71 3 31 7 65 9 75 19 97 26 452 12 604 -4 47 -9 103 -10 125 -2 22 -6
58 -10 80 -3 22 -8 56 -10 75 -3 19 -12 71 -22 115 -9 44 -18 89 -20 100 -2
11 -13 54 -24 95 -11 41 -23 84 -26 95 -7 27 -10 38 -16 55 -70 197 -96 266
-120 320 -53 116 -145 293 -187 360 -22 36 -48 79 -57 95 -9 17 -30 47 -46 68
-16 20 -27 37 -23 37 3 0 -4 11 -17 24 -13 14 -39 46 -58 73 -19 26 -43 56
-54 66 -10 9 -16 17 -11 17 4 0 -7 14 -25 30 -18 17 -29 30 -26 30 3 0 -8 13
-24 28 -16 16 -27 32 -23 35 3 4 1 7 -5 7 -6 0 -22 11 -36 25 -14 14 -23 25
-20 25 6 0 -46 51 -103 102 -23 20 -39 39 -35 42 3 3 0 6 -7 6 -6 0 -27 15
-45 33 -59 55 -96 87 -104 87 -4 0 -14 9 -22 20 -8 11 -19 20 -25 20 -5 0 -24
14 -42 30 -18 17 -37 30 -42 30 -6 0 -11 5 -11 10 0 6 -6 10 -14 10 -8 0 -16
4 -18 8 -4 12 -155 112 -168 112 -5 0 -10 3 -10 8 0 4 -21 18 -47 32 -27 13
-50 27 -53 30 -3 3 -36 21 -75 40 -38 19 -71 38 -73 42 -2 5 -10 8 -17 8 -11
0 -70 25 -210 90 -11 5 -53 20 -93 33 -40 14 -76 27 -79 31 -4 3 -16 6 -28 6
-11 0 -26 5 -33 12 -7 7 -12 9 -12 5 0 -4 -17 -1 -37 7 -32 12 -85 26 -103 28
-3 0 -25 6 -50 14 -37 10 -118 27 -240 49 -26 4 -134 19 -155 20 -11 1 -58 5
-105 10 -107 11 -362 12 -455 3z"/>
<path d="M13335 16416 c-396 -398 -723 -721 -728 -719 -4 3 -6 1 -5 -4 2 -5
-303 -316 -677 -691 -374 -375 -895 -897 -1159 -1162 -263 -264 -483 -480
-489 -480 -6 0 -8 -2 -5 -5 8 -8 -59 -75 -73 -75 -7 0 -10 -2 -7 -5 7 -7 -181
-195 -195 -195 -6 0 -8 -2 -5 -6 7 -7 -460 -474 -475 -474 -6 0 -8 -2 -5 -5 3
-3 -313 -325 -703 -715 -390 -391 -709 -712 -709 -715 0 -3 1343 -5 2985 -5
l2985 0 1 28 c6 216 0 5947 -7 5948 -5 1 -333 -323 -729 -720z"/>
<path d="M3299 14246 c-2 -2 -57 -6 -122 -10 -66 -3 -122 -8 -125 -10 -4 -2
-34 -6 -67 -10 -33 -3 -75 -10 -92 -15 -18 -5 -40 -8 -50 -6 -10 1 -22 -1 -28
-5 -5 -5 -28 -9 -50 -11 -22 -1 -44 -5 -50 -8 -5 -3 -18 -7 -27 -8 -10 -2 -53
-12 -95 -24 -43 -12 -82 -22 -88 -23 -5 -2 -17 -5 -25 -8 -8 -3 -49 -16 -90
-29 -41 -12 -112 -37 -157 -55 -45 -17 -84 -29 -87 -26 -4 3 -6 0 -6 -6 0 -7
-7 -12 -15 -12 -8 0 -29 -8 -47 -18 -18 -10 -49 -24 -68 -32 -19 -7 -43 -20
-52 -28 -10 -8 -18 -12 -18 -9 0 4 -15 -1 -32 -11 -18 -10 -62 -34 -98 -53
-36 -18 -67 -36 -70 -40 -3 -3 -20 -12 -37 -20 -18 -8 -33 -17 -33 -21 0 -5
-7 -8 -15 -8 -8 0 -15 -4 -15 -10 0 -5 -5 -10 -10 -10 -9 0 -127 -76 -140 -90
-3 -3 -31 -22 -62 -43 -31 -21 -65 -46 -76 -55 -11 -9 -34 -28 -52 -42 -39
-30 -84 -69 -147 -127 -24 -24 -46 -43 -48 -43 -3 0 -42 -38 -89 -85 -46 -47
-83 -85 -81 -85 2 0 -16 -19 -39 -43 -23 -24 -59 -65 -81 -93 -22 -27 -44 -54
-50 -60 -5 -6 -21 -26 -35 -44 -14 -18 -31 -39 -38 -47 -7 -7 -10 -18 -6 -24
4 -7 3 -9 -2 -6 -6 3 -36 -33 -69 -81 -32 -48 -62 -88 -67 -90 -4 -2 -8 -10
-8 -18 0 -8 -5 -20 -10 -27 -23 -28 -59 -87 -52 -87 4 0 2 -4 -3 -8 -6 -4 -22
-28 -35 -54 -14 -27 -29 -48 -33 -48 -5 0 -5 -4 -2 -10 3 -5 1 -10 -5 -10 -6
0 -8 -4 -5 -10 3 -5 1 -10 -5 -10 -6 0 -9 -4 -5 -9 3 -5 -2 -16 -11 -25 -8 -9
-16 -25 -17 -36 -1 -11 -4 -20 -8 -20 -3 0 -14 -19 -24 -42 -10 -24 -27 -63
-39 -88 -11 -25 -21 -47 -21 -50 -1 -3 -15 -41 -32 -85 -17 -44 -41 -111 -53
-150 -24 -78 -27 -87 -29 -97 -1 -4 -9 -27 -17 -50 -8 -24 -17 -54 -19 -68 -1
-14 -8 -45 -15 -70 -14 -50 -19 -74 -25 -110 -2 -14 -11 -63 -19 -110 -20
-114 -24 -150 -32 -250 -4 -47 -10 -86 -15 -88 -12 -5 -12 -439 0 -444 4 -1
11 -39 15 -83 9 -120 32 -272 60 -410 31 -155 126 -455 192 -608 63 -147 169
-353 231 -450 15 -23 28 -44 28 -47 1 -9 123 -187 140 -204 9 -9 13 -16 8 -16
-4 0 -3 -4 2 -8 6 -4 37 -41 70 -82 142 -178 315 -357 485 -500 23 -19 50 -42
60 -51 10 -8 31 -24 45 -35 15 -10 33 -25 41 -32 8 -7 14 -11 14 -8 0 3 15 -8
32 -25 18 -16 38 -29 44 -29 7 0 14 -4 16 -8 4 -11 94 -72 106 -72 6 0 12 -4
14 -9 8 -23 476 -271 511 -271 8 0 17 -3 21 -8 4 -4 11 -7 14 -8 4 0 27 -10
52 -21 25 -11 57 -23 72 -27 15 -3 40 -11 55 -18 15 -6 33 -12 39 -13 7 -2 38
-12 70 -23 59 -21 245 -69 300 -78 16 -2 40 -7 54 -11 14 -3 30 -7 35 -7 13
-2 118 -19 125 -21 3 -1 39 -5 80 -9 41 -5 89 -11 105 -14 17 -3 836 -7 1820
-9 l1791 -4 -1 3438 0 3438 -1726 3 c-949 1 -1727 0 -1730 -2z"/>
<path d="M8090 10413 c0 -3 40 -45 89 -93 50 -48 87 -90 84 -94 -4 -3 -1 -6 5
-6 14 0 402 -387 394 -394 -3 -3 0 -6 6 -6 16 0 1822 -1807 1814 -1815 -4 -4
-2 -5 3 -3 6 2 494 -480 1085 -1070 591 -590 1114 -1111 1161 -1157 48 -47 85
-85 83 -85 -2 0 21 -22 51 -50 30 -27 53 -50 51 -50 -2 0 47 -49 109 -110 62
-60 110 -110 106 -110 -3 0 0 -4 8 -9 28 -18 658 -651 653 -656 -3 -3 -1 -5 4
-5 6 0 58 -47 116 -105 59 -58 104 -105 101 -105 -4 0 8 -11 27 -25 19 -14 34
-25 34 -25 1 0 1 1344 0 2988 l-1 2987 -2991 1 c-1646 1 -2992 0 -2992 -3z"/>
<path d="M14685 7056 l0 -3362 62 -59 c56 -54 97 -92 173 -155 14 -12 35 -30
48 -41 12 -10 24 -19 27 -19 3 0 14 -8 24 -18 28 -25 40 -34 96 -72 28 -19 52
-37 53 -42 2 -4 10 -8 18 -8 8 0 14 -4 14 -10 0 -5 7 -10 15 -10 8 0 15 -5 15
-12 0 -6 3 -9 6 -5 4 3 21 -4 38 -17 29 -21 90 -57 191 -110 22 -12 41 -24 43
-28 2 -5 8 -8 14 -8 5 0 48 -18 94 -40 47 -22 90 -40 97 -40 7 0 17 -4 22 -9
6 -5 37 -18 70 -30 33 -12 69 -26 80 -31 11 -5 67 -23 125 -40 58 -17 112 -34
120 -37 8 -4 26 -8 40 -9 14 -2 52 -10 85 -19 33 -8 76 -17 95 -20 19 -3 46
-8 60 -11 32 -7 51 -10 125 -20 33 -4 62 -8 65 -9 3 -1 61 -5 130 -10 156 -11
357 -12 430 -3 30 3 89 9 131 12 42 3 82 8 90 10 8 3 37 7 64 10 28 3 57 7 65
10 8 3 33 7 55 10 22 3 57 10 78 15 20 5 37 7 37 4 0 -3 6 -1 13 5 6 5 27 12
45 15 38 6 110 27 233 68 48 16 93 29 102 29 8 0 17 5 19 10 2 6 13 12 26 13
12 0 22 5 22 9 0 4 7 8 15 8 9 0 27 7 40 16 13 9 30 12 36 8 8 -4 9 -3 5 4 -4
7 -1 12 9 12 8 0 23 4 33 9 9 5 40 19 67 32 28 13 52 27 53 32 2 4 12 7 23 7
10 0 19 5 19 10 0 6 9 10 20 10 11 0 20 4 20 8 0 5 16 14 35 22 19 8 35 17 35
22 0 4 5 8 10 8 6 0 38 18 71 40 33 22 67 40 75 40 8 0 13 4 10 8 -3 4 15 19
40 32 24 14 44 28 44 32 0 5 6 8 13 8 7 0 19 9 27 20 8 11 20 20 27 20 7 0 13
5 13 10 0 6 4 10 10 10 5 0 22 11 37 25 16 13 59 50 98 82 115 96 281 266 400
410 11 14 30 36 43 49 13 13 20 24 16 24 -4 0 3 8 14 19 12 10 22 22 22 26 0
4 10 20 23 35 12 15 28 36 34 46 7 10 33 50 58 87 25 38 45 72 45 77 0 5 3 10
8 12 4 2 18 24 31 51 13 26 28 47 33 47 4 0 8 4 8 9 0 5 27 65 61 133 33 68
62 130 64 138 2 8 18 49 35 90 18 41 34 86 36 100 3 14 9 27 15 28 5 2 9 11 9
21 0 9 8 44 19 77 27 85 41 136 44 159 1 11 6 25 10 32 4 6 8 24 9 40 1 15 5
33 9 38 5 6 8 20 8 30 -1 19 4 44 15 83 2 9 8 44 12 77 3 33 8 71 10 85 15
108 19 188 19 415 -1 220 -6 337 -20 415 -4 24 -19 124 -20 140 -1 8 -5 26 -8
40 -4 14 -9 36 -11 50 -2 14 -9 44 -15 68 -7 23 -9 46 -6 51 3 5 1 11 -3 13
-5 1 -16 32 -26 68 -9 36 -18 72 -21 80 -2 8 -16 49 -30 90 -14 41 -28 82 -30
91 -2 9 -8 25 -13 35 -10 18 -18 41 -21 57 0 4 -12 30 -26 57 -14 28 -22 50
-19 50 4 0 2 6 -4 13 -5 6 -39 68 -75 137 -86 166 -83 162 -151 265 -63 96
-173 245 -190 257 -6 4 -7 8 -2 8 5 0 -1 8 -12 19 -12 10 -19 21 -15 25 3 3
-2 6 -12 6 -10 0 -16 2 -13 5 9 10 -195 221 -392 405 -61 58 -147 139 -190
180 -144 138 -202 190 -212 190 -5 0 -7 4 -4 9 4 5 2 11 -3 13 -11 3 -192 172
-308 286 -41 39 -79 72 -84 72 -6 0 -7 5 -4 10 3 6 2 10 -3 10 -5 0 -34 24
-64 53 -158 151 -215 204 -238 220 -13 9 -21 17 -17 17 4 0 -12 17 -35 38 -23
20 -61 55 -84 77 -148 143 -205 195 -214 195 -6 0 -9 4 -6 8 3 5 -6 16 -19 26
-12 9 -59 52 -103 94 -196 189 -244 232 -254 232 -6 0 -9 3 -6 6 4 3 -12 22
-35 42 -23 20 -75 69 -117 109 -41 39 -92 87 -113 106 l-38 35 -1082 0 -1082
0 0 -3362z"/>
<path d="M7399 10263 c-5 -46 0 -7241 5 -7278 14 -99 18 -122 42 -240 13 -66
32 -145 41 -175 9 -30 17 -63 16 -72 0 -10 4 -18 8 -18 5 0 8 -3 7 -7 -5 -14
66 -223 74 -223 5 0 7 -4 4 -9 -5 -8 39 -121 95 -239 16 -34 29 -66 29 -71 0
-5 3 -11 8 -13 4 -1 30 -47 57 -101 51 -102 140 -248 169 -279 9 -10 13 -18
10 -18 -6 0 57 -91 83 -120 31 -35 53 -63 53 -70 0 -3 8 -15 18 -26 9 -11 44
-51 77 -89 33 -38 79 -90 102 -115 24 -25 43 -48 43 -52 0 -5 8 -8 17 -8 9 0
14 -2 11 -5 -5 -5 17 -27 137 -140 29 -27 122 -106 147 -125 11 -8 36 -30 56
-47 21 -18 39 -33 42 -33 3 0 32 -20 65 -44 32 -25 63 -42 67 -40 4 3 8 -1 8
-9 0 -8 8 -17 18 -20 9 -4 49 -26 87 -51 76 -49 73 -47 225 -128 87 -47 198
-99 315 -148 64 -27 278 -99 340 -115 17 -5 35 -9 40 -11 6 -2 19 -5 30 -7 11
-3 40 -10 65 -17 25 -7 56 -14 70 -16 14 -3 59 -12 100 -20 41 -8 93 -17 115
-20 22 -3 51 -7 65 -10 14 -3 59 -8 100 -11 41 -2 81 -5 88 -5 6 -1 12 -5 12
-10 0 -11 497 -10 502 1 2 5 39 11 83 14 69 5 184 21 302 41 18 4 43 10 56 15
14 6 27 8 29 6 2 -2 25 2 51 10 26 8 48 14 50 14 12 -4 287 78 342 101 11 5
52 21 90 36 39 15 113 47 165 72 52 25 97 46 100 46 10 2 125 61 130 66 3 3
26 17 53 30 26 14 47 28 47 32 0 5 6 8 13 8 11 0 85 46 114 70 7 5 17 10 23
10 5 0 10 5 10 10 0 6 6 10 14 10 8 0 16 3 18 8 2 4 26 23 53 41 28 19 52 38
55 41 3 3 21 17 40 30 41 29 75 56 106 86 13 12 25 19 28 16 3 -3 6 3 6 13 0
10 3 15 7 11 7 -7 21 5 188 171 97 95 138 141 225 243 12 14 29 34 38 45 10
11 28 36 42 55 13 19 28 40 32 45 44 55 106 145 100 145 -4 0 -2 4 4 8 6 4 28
36 50 72 21 36 41 67 44 70 23 23 198 379 240 490 18 47 36 94 40 105 8 17 22
60 25 75 1 3 11 37 24 75 12 39 24 77 26 85 2 8 13 51 24 95 12 44 24 96 27
115 3 19 10 54 15 78 8 38 12 59 24 142 4 29 14 116 20 175 2 22 7 99 11 170
l6 130 -262 262 c-144 145 -266 263 -271 263 -6 0 -8 3 -6 8 4 9 -2321 2330
-2328 2323 -3 -2 -5 3 -5 12 0 10 -7 17 -16 17 -8 0 -14 3 -12 8 4 9 -280 290
-287 284 -3 -3 -5 2 -5 11 0 10 -6 17 -12 17 -7 1 -26 19 -43 40 -16 21 -32
39 -35 40 -3 0 -136 131 -295 291 -160 160 -299 299 -309 310 -10 10 -23 16
-28 13 -5 -3 -7 -1 -6 5 3 9 -2916 2931 -2927 2931 -3 0 -5 -3 -6 -7z"/>
</g>
</svg>
